<?xml version="1.0" encoding="UTF-8" standalone="no"?>
<svg xmlns:ffdec="https://www.free-decompiler.com/flash" xmlns:xlink="http://www.w3.org/1999/xlink" ffdec:objectType="frame" height="129.45px" width="105.05px" xmlns="http://www.w3.org/2000/svg">
  <g transform="matrix(1.0, 0.0, 0.0, 1.0, 7.2, 10.75)">
    <use ffdec:characterId="1" height="79.5" transform="matrix(1.0, 0.0, 0.0, 1.0, -3.35, 39.2)" width="47.0" xlink:href="#shape0"/>
    <use ffdec:characterId="2" height="25.15" transform="matrix(0.9969, -0.0781, 0.0781, 0.9969, 67.1562, 66.0514)" width="26.75" xlink:href="#shape1"/>
    <use ffdec:characterId="3" height="83.15" transform="matrix(1.0, 0.0, 0.0, 1.0, 0.15, 8.1)" width="93.55" xlink:href="#shape2"/>
    <use ffdec:characterId="18" height="5.6" transform="matrix(1.0, 0.0, 0.0, 1.0, 80.9, 46.95)" width="11.45" xlink:href="#shape3"/>
    <use ffdec:characterId="5" height="45.15" transform="matrix(1.0, 0.0, 0.0, 1.0, 14.5, 25.35)" width="46.7" xlink:href="#shape4"/>
    <use ffdec:characterId="19" height="9.45" transform="matrix(1.0, 0.0, 0.0, 1.0, 28.75, 48.45)" width="22.25" xlink:href="#shape5"/>
    <use ffdec:characterId="7" height="24.9" transform="matrix(1.0, 0.0, 0.0, 1.0, 9.7, 66.05)" width="29.45" xlink:href="#shape6"/>
  </g>
  <defs>
    <g id="shape0" transform="matrix(1.0, 0.0, 0.0, 1.0, 3.35, 1.25)">
      <path d="M-2.05 41.3 L-2.05 40.3 -1.75 36.1 Q-0.65 25.7 4.15 16.0 6.85 10.4 10.7 5.1 L12.45 2.85 13.3 1.8 14.45 0.0 Q22.4 20.85 35.1 37.8 27.1 37.25 28.95 38.95 L31.85 38.6 29.0 39.0 26.5 39.05 Q24.8 40.55 22.9 41.6 L22.05 42.0 Q20.05 42.95 17.9 43.35 L13.3 43.55 Q12.0 43.8 11.15 44.55 L10.15 43.0 8.1 40.85 Q6.6 39.6 4.95 39.5 2.85 39.4 0.1 40.4 L-1.15 40.9 -2.05 41.3" fill="#3ad3e5" fill-rule="evenodd" stroke="none"/>
      <path d="M-2.05 41.3 L-1.15 40.9 0.1 40.4 Q2.85 39.4 4.95 39.5 6.6 39.6 8.1 40.85 L10.15 43.0 11.15 44.55 Q10.05 45.65 9.95 47.75 L9.9 48.1 9.9 48.25 9.85 49.05 9.85 49.35 9.85 49.4 Q8.45 48.55 6.65 48.5 4.7 48.4 1.8 50.0 0.0 51.05 -1.15 52.3 -2.0 47.4 -2.05 41.6 L-2.1 42.45 -2.05 41.3" fill="#26596c" fill-rule="evenodd" stroke="none"/>
      <path d="M9.9 51.9 Q10.15 54.1 11.0 55.9 8.85 56.65 6.9 58.25 4.0 60.6 3.05 63.9 1.6 61.45 0.55 58.5 L-0.55 54.75 Q0.45 53.85 1.75 53.25 4.85 51.6 7.85 51.75 L9.9 51.9" fill="#220154" fill-rule="evenodd" stroke="none"/>
      <path d="M-1.15 52.3 Q0.0 51.05 1.8 50.0 4.7 48.4 6.65 48.5 8.45 48.55 9.85 49.4 9.8 50.75 9.9 51.9 L7.85 51.75 Q4.85 51.6 1.75 53.25 0.45 53.85 -0.55 54.75 L-1.15 52.3" fill="#2b3b52" fill-rule="evenodd" stroke="none"/>
      <path d="M20.45 61.65 L20.4 64.55 Q20.4 70.15 19.1 71.75 L17.55 73.45 17.05 73.7 16.45 73.7 Q15.25 73.5 13.25 72.3 L12.95 72.15 10.3 71.5 Q7.7 70.8 6.25 68.6 L4.05 65.35 3.05 63.9 Q4.0 60.6 6.9 58.25 8.85 56.65 11.0 55.9 11.95 57.35 13.85 58.2 16.35 60.35 20.45 61.65 M7.65 64.95 Q8.3 65.6 9.1 65.65 10.0 65.7 10.6 65.1 11.25 64.5 11.3 63.65 11.35 62.75 10.75 62.15 10.2 61.5 9.3 61.45 8.5 61.4 7.8 62.0 7.15 62.55 7.1 63.45 7.05 64.3 7.65 64.95" fill="#17003c" fill-rule="evenodd" stroke="none"/>
      <path d="M7.65 64.95 Q7.05 64.3 7.1 63.45 7.15 62.55 7.8 62.0 8.5 61.4 9.3 61.45 10.2 61.5 10.75 62.15 11.35 62.75 11.3 63.65 11.25 64.5 10.6 65.1 10.0 65.7 9.1 65.65 8.3 65.6 7.65 64.95 M8.75 61.9 Q7.9 62.25 7.85 63.15 7.85 64.85 9.15 64.9 10.75 65.0 10.85 63.4 L10.75 62.8 10.55 62.3 Q10.3 61.75 9.65 61.7 L8.75 61.9" fill="#efbccf" fill-rule="evenodd" stroke="none"/>
      <path d="M8.75 61.9 L9.65 61.7 Q10.3 61.75 10.55 62.3 L10.75 62.8 10.85 63.4 Q10.75 65.0 9.15 64.9 7.85 64.85 7.85 63.15 7.9 62.25 8.75 61.9" fill="#ebd7d6" fill-rule="evenodd" stroke="none"/>
      <path d="M-2.05 41.3 L-2.05 40.3 -1.75 36.1 Q-0.65 25.7 4.15 16.0 6.85 10.4 10.7 5.1 L12.45 2.85 13.3 1.8 14.45 0.0 M28.95 38.95 L31.85 38.6 34.7 38.2 M-2.05 41.3 L-2.1 42.45 -2.05 41.6 Q-2.0 47.4 -1.15 52.3 L-0.55 54.75 Q2.55 73.35 16.45 73.7 L17.05 73.7 M9.85 49.4 L9.85 49.35 9.85 49.05 9.9 48.25 9.9 48.1 9.95 47.75 Q10.05 45.65 11.15 44.55 12.0 43.8 13.3 43.55 L17.9 43.35 Q20.05 42.95 22.05 42.0 L22.9 41.6 Q24.8 40.55 26.5 39.05 L29.0 39.0 31.85 38.6 M9.95 47.75 L9.9 48.25 M20.45 61.65 L27.7 63.0 M11.0 55.9 Q11.95 57.35 13.85 58.2 10.0 54.8 9.85 49.4 9.8 50.75 9.9 51.9 10.15 54.1 11.0 55.9 M13.85 58.2 Q16.35 60.35 20.45 61.65" fill="none" stroke="#230930" stroke-linecap="round" stroke-linejoin="round" stroke-width="2.5"/>
      <path d="M32.55 53.3 Q30.9 52.9 29.45 53.7 27.95 54.65 27.5 56.25 27.05 57.9 27.95 59.35 28.8 60.9 30.45 61.3 32.1 61.75 33.6 60.85 35.0 60.0 35.45 58.35 35.9 56.75 35.1 55.2 34.2 53.75 32.55 53.3 M31.35 48.6 Q36.2 49.4 40.0 54.7 45.25 63.45 38.9 71.75 L36.15 73.85 Q26.5 80.15 14.75 73.75 13.55 73.5 14.4 71.5 L16.4 65.5 17.3 61.75 18.0 62.2 Q18.8 63.6 19.85 64.35 L19.25 62.55 Q18.5 59.7 18.95 58.1 20.15 53.4 25.0 50.55 28.35 48.55 31.35 48.6 M20.7 59.25 Q19.75 59.85 19.45 61.0 19.2 62.05 19.75 63.05 20.3 64.05 21.4 64.35 22.45 64.6 23.6 64.05 24.55 63.45 24.8 62.4 25.1 61.25 24.55 60.25 23.9 59.25 22.85 59.0 21.75 58.7 20.7 59.25 M21.45 71.1 Q21.15 72.15 21.75 73.1 22.3 74.0 23.3 74.3 L25.35 74.05 Q26.2 73.45 26.5 72.4 26.8 71.35 26.25 70.45 25.65 69.5 24.6 69.25 23.6 68.95 22.65 69.5 21.75 70.05 21.45 71.1 M35.2 72.1 Q36.25 71.2 36.4 70.05 36.6 68.9 35.9 68.05 35.1 67.3 33.8 67.25 32.5 67.3 31.55 68.15 30.5 69.05 30.25 70.25 30.05 71.35 30.85 72.15 31.55 72.95 32.75 73.0 34.1 72.9 35.2 72.1" fill="#130029" fill-rule="evenodd" stroke="none"/>
      <path d="M17.3 60.45 L17.2 59.95 Q16.25 55.35 20.8 51.35 L21.0 51.25 Q26.7 47.8 31.35 48.6 28.35 48.55 25.0 50.55 20.15 53.4 18.95 58.1 18.5 59.7 19.25 62.55 L19.85 64.35 Q18.8 63.6 18.0 62.2 L17.85 61.95 17.4 60.75 17.95 60.6 17.3 60.45" fill="#2a2446" fill-rule="evenodd" stroke="none"/>
      <path d="M32.9 54.45 Q31.75 54.1 30.7 54.7 29.45 55.3 29.15 56.6 28.9 57.55 29.35 58.25 29.8 58.95 30.85 59.2 L33.1 59.05 Q34.25 58.45 34.55 57.35 34.8 56.45 34.0 55.1 33.45 54.55 32.9 54.45 M32.55 53.3 Q34.2 53.75 35.1 55.2 35.9 56.75 35.45 58.35 35.0 60.0 33.6 60.85 32.1 61.75 30.45 61.3 28.8 60.9 27.95 59.35 27.05 57.9 27.5 56.25 27.95 54.65 29.45 53.7 30.9 52.9 32.55 53.3 M23.4 60.25 L22.8 59.6 21.3 59.8 Q20.6 60.3 20.3 61.4 20.15 61.95 20.45 62.45 20.85 63.15 21.6 63.3 22.45 63.35 23.1 62.75 23.9 62.0 23.9 61.55 L23.4 60.25 M20.7 59.25 Q21.75 58.7 22.85 59.0 23.9 59.25 24.55 60.25 25.1 61.25 24.8 62.4 24.55 63.45 23.6 64.05 22.45 64.6 21.4 64.35 20.3 64.05 19.75 63.05 19.2 62.05 19.45 61.0 19.75 59.85 20.7 59.25 M24.1 69.8 Q23.75 69.7 22.95 70.15 22.0 70.65 21.8 71.45 21.4 73.0 23.0 73.4 L24.35 73.35 Q25.2 73.0 25.5 72.0 L25.5 71.95 25.3 70.95 25.2 70.6 Q24.9 70.0 24.1 69.8 M21.45 71.1 Q21.75 70.05 22.65 69.5 23.6 68.95 24.6 69.25 25.65 69.5 26.25 70.45 26.8 71.35 26.5 72.4 26.2 73.45 25.35 74.05 L23.3 74.3 Q22.3 74.0 21.75 73.1 21.15 72.15 21.45 71.1 M34.1 71.4 L34.95 70.75 35.45 70.1 35.5 70.0 35.45 69.65 35.5 69.6 35.45 69.35 35.2 68.8 Q34.7 68.05 34.05 67.9 33.5 67.75 32.85 68.2 32.15 68.7 31.8 69.85 31.7 70.4 31.9 71.05 32.15 71.7 32.55 71.8 33.0 71.95 34.1 71.4 M35.2 72.1 Q34.1 72.9 32.75 73.0 31.55 72.95 30.85 72.15 30.05 71.35 30.25 70.25 30.5 69.05 31.55 68.15 32.5 67.3 33.8 67.25 35.1 67.3 35.9 68.05 36.6 68.9 36.4 70.05 36.25 71.2 35.2 72.1" fill="#efbccf" fill-rule="evenodd" stroke="none"/>
      <path d="M32.9 54.45 Q33.45 54.55 34.0 55.1 34.8 56.45 34.55 57.35 34.25 58.45 33.1 59.05 L30.85 59.2 Q29.8 58.95 29.35 58.25 28.9 57.55 29.15 56.6 29.45 55.3 30.7 54.7 31.75 54.1 32.9 54.45 M23.4 60.25 L23.9 61.55 Q23.9 62.0 23.1 62.75 22.45 63.35 21.6 63.3 20.85 63.15 20.45 62.45 20.15 61.95 20.3 61.4 20.6 60.3 21.3 59.8 L22.8 59.6 23.4 60.25 M24.1 69.8 Q24.9 70.0 25.2 70.6 L25.3 70.95 25.5 71.95 25.5 72.0 Q25.2 73.0 24.35 73.35 L23.0 73.4 Q21.4 73.0 21.8 71.45 22.0 70.65 22.95 70.15 23.75 69.7 24.1 69.8 M34.1 71.4 Q33.0 71.95 32.55 71.8 32.15 71.7 31.9 71.05 31.7 70.4 31.8 69.85 32.15 68.7 32.85 68.2 33.5 67.75 34.05 67.9 34.7 68.05 35.2 68.8 L35.45 69.35 35.5 69.6 35.45 69.65 35.5 70.0 35.45 70.1 34.95 70.75 34.1 71.4" fill="#ebd7d6" fill-rule="evenodd" stroke="none"/>
      <path d="M17.3 60.45 L17.2 59.95 Q16.25 55.35 20.8 51.35 L21.0 51.25 Q26.7 47.8 31.35 48.6 36.2 49.4 40.0 54.7 45.25 63.45 38.9 71.75 L36.15 73.85 Q26.5 80.15 14.75 73.75 M18.0 62.2 L17.85 61.95 17.4 60.75 17.3 60.45" fill="none" stroke="#230930" stroke-linecap="round" stroke-linejoin="round" stroke-width="2.5"/>
    </g>
    <g id="shape1" transform="matrix(1.0, 0.0, 0.0, 1.0, 1.25, 1.25)">
      <path d="M24.15 14.3 L22.4 14.1 Q20.6 13.55 20.45 9.9 20.6 8.85 21.4 8.3 L21.5 8.45 Q23.1 10.9 23.8 12.8 L24.15 14.25 24.15 14.3" fill="#efbccf" fill-rule="evenodd" stroke="none"/>
      <path d="M21.4 8.3 Q20.6 8.85 20.45 9.9 20.6 13.55 22.4 14.1 L24.15 14.3 24.25 15.2 Q24.25 17.25 23.0 18.85 20.9 18.75 19.35 16.05 17.75 13.3 17.75 9.5 17.75 6.55 17.9 6.25 18.1 5.75 19.25 5.25 L20.0 6.3 21.4 8.3" fill="#252944" fill-rule="evenodd" stroke="none"/>
      <path d="M19.25 5.25 Q18.1 5.75 17.9 6.25 17.75 6.55 17.75 9.5 17.75 13.3 19.35 16.05 20.9 18.75 23.0 18.85 L21.5 20.25 20.8 20.75 19.9 21.25 18.3 21.9 17.65 21.2 17.1 20.25 16.55 19.25 Q15.0 15.6 15.0 9.9 15.0 6.05 15.9 4.35 16.35 3.5 17.15 3.05 L18.65 4.55 19.25 5.25" fill="#2c4c61" fill-rule="evenodd" stroke="none"/>
      <path d="M5.6 1.35 Q6.35 0.85 7.2 0.55 L12.5 0.25 Q13.5 0.55 14.35 1.05 L15.85 2.0 17.15 3.05 Q16.35 3.5 15.9 4.35 15.0 6.05 15.0 9.9 15.0 15.6 16.55 19.25 L17.1 20.25 17.65 21.2 Q10.35 20.75 6.65 17.65 2.7 14.3 2.7 7.55 2.7 6.4 4.45 3.2 L5.6 1.35" fill="#3ad3e5" fill-rule="evenodd" stroke="none"/>
      <path d="M18.3 21.9 Q16.0 22.65 13.1 22.65 7.5 22.65 3.8 19.3 0.0 15.9 0.0 10.65 0.0 7.6 2.15 4.55 L2.5 4.1 Q3.85 2.4 5.6 1.35 L4.45 3.2 Q2.7 6.4 2.7 7.55 2.7 14.3 6.65 17.65 10.35 20.75 17.65 21.2 L18.3 21.9" fill="#adfccd" fill-rule="evenodd" stroke="none"/>
      <path d="M21.4 8.3 L20.0 6.3 19.25 5.25 18.65 4.55 17.15 3.05 15.85 2.0 14.35 1.05 Q13.5 0.55 12.5 0.25 L7.2 0.55 Q6.35 0.85 5.6 1.35 3.85 2.4 2.5 4.1 L2.15 4.55 Q0.0 7.6 0.0 10.65 0.0 15.9 3.8 19.3 7.5 22.65 13.1 22.65 16.0 22.65 18.3 21.9 L19.9 21.25 20.8 20.75 21.5 20.25 23.0 18.85 Q24.25 17.25 24.25 15.2 L24.15 14.3 24.15 14.25 23.8 12.8 Q23.1 10.9 21.5 8.45 L21.4 8.3 Z" fill="none" stroke="#230930" stroke-linecap="round" stroke-linejoin="round" stroke-width="2.5"/>
    </g>
    <g id="shape2" transform="matrix(1.0, 0.0, 0.0, 1.0, 1.25, 1.25)">
      <path d="M88.45 28.7 Q90.1 32.75 90.7 37.1 92.1 47.0 88.25 58.45 L85.9 63.2 Q83.4 65.55 80.15 67.6 73.3 72.0 68.65 72.0 55.05 72.0 45.65 62.85 36.9 54.5 36.9 44.2 36.9 33.35 44.05 25.95 51.4 18.4 62.7 18.4 78.85 18.4 88.45 28.7" fill="#67e9b9" fill-rule="evenodd" stroke="none"/>
      <path d="M85.9 63.2 L85.5 63.9 85.4 64.1 83.8 66.55 Q80.45 71.25 76.2 74.4 73.9 76.1 71.25 77.35 68.1 78.85 64.5 79.7 L61.7 79.9 Q48.95 79.9 39.65 72.2 L35.7 68.4 Q31.35 63.65 28.9 57.8 26.6 52.2 26.6 47.2 26.6 41.85 29.85 37.1 L30.55 36.15 33.3 32.95 Q34.5 31.45 34.5 30.7 34.5 29.6 33.6 28.35 L31.55 25.8 Q28.55 21.95 20.4 17.3 12.25 12.6 19.3 11.45 26.4 10.25 33.9 10.2 L52.6 11.6 Q65.65 13.35 75.5 15.35 71.4 10.85 66.6 7.75 L61.8 4.6 Q60.9 3.85 60.9 2.95 L61.3 2.35 61.45 2.2 Q66.7 4.95 70.95 8.0 78.95 13.7 83.8 20.3 L85.35 22.6 Q87.2 25.55 88.45 28.7 78.85 18.4 62.7 18.4 51.4 18.4 44.05 25.95 36.9 33.35 36.9 44.2 36.9 54.5 45.65 62.85 55.05 72.0 68.65 72.0 73.3 72.0 80.15 67.6 83.4 65.55 85.9 63.2" fill="#5dd7c8" fill-rule="evenodd" stroke="none"/>
      <path d="M64.5 79.7 Q58.15 81.1 50.45 80.4 L49.7 80.3 49.05 80.25 44.15 79.15 Q40.2 78.15 37.2 75.9 L32.85 72.2 32.55 71.8 29.5 69.2 Q14.1 56.6 12.9 32.4 L11.85 33.05 Q13.2 30.25 13.2 29.45 L13.15 29.05 Q12.95 27.6 11.75 26.25 L3.1 17.95 1.8 16.6 1.45 16.25 Q-2.25 12.6 3.5 10.7 4.9 10.25 6.85 9.9 L9.35 9.55 9.5 9.5 Q40.1 2.2 57.8 6.8 52.0 -2.15 58.55 0.7 L61.45 2.2 61.3 2.35 60.9 2.95 Q60.9 3.85 61.8 4.6 L66.6 7.75 Q71.4 10.85 75.5 15.35 65.65 13.35 52.6 11.6 L33.9 10.2 Q26.4 10.25 19.3 11.45 12.25 12.6 20.4 17.3 28.55 21.95 31.55 25.8 L33.6 28.35 Q34.5 29.6 34.5 30.7 34.5 31.45 33.3 32.95 L30.55 36.15 29.85 37.1 Q26.6 41.85 26.6 47.2 26.6 52.2 28.9 57.8 31.35 63.65 35.7 68.4 L39.65 72.2 Q48.95 79.9 61.7 79.9 L64.5 79.7 M69.05 11.8 Q64.3 8.4 57.8 6.8 64.3 8.4 69.05 11.8" fill="#3ad3e5" fill-rule="evenodd" stroke="none"/>
      <path d="M88.45 28.7 Q90.1 32.75 90.7 37.1 92.1 47.0 88.25 58.45 L85.9 63.2 85.5 63.9 85.4 64.1 83.8 66.55 Q80.45 71.25 76.2 74.4 73.9 76.1 71.25 77.35 68.1 78.85 64.5 79.7 58.15 81.1 50.45 80.4 L49.7 80.3 49.05 80.25 44.15 79.15 Q40.2 78.15 37.2 75.9 L32.85 72.2 32.55 71.8 29.5 69.2 M11.85 33.05 Q13.2 30.25 13.2 29.45 L13.15 29.05 Q12.95 27.6 11.75 26.25 L3.1 17.95 1.8 16.6 1.45 16.25 Q-2.25 12.6 3.5 10.7 4.9 10.25 6.85 9.9 L9.35 9.55 9.5 9.5 Q40.1 2.2 57.8 6.8 52.0 -2.15 58.55 0.7 L61.45 2.2 Q66.7 4.95 70.95 8.0 78.95 13.7 83.8 20.3 L85.35 22.6 Q87.2 25.55 88.45 28.7" fill="none" stroke="#230930" stroke-linecap="round" stroke-linejoin="round" stroke-width="2.5"/>
      <path d="M57.8 6.8 Q64.3 8.4 69.05 11.8" fill="none" stroke="#265573" stroke-linecap="round" stroke-linejoin="round" stroke-width="1.0"/>
      <path d="M77.4 65.3 Q76.95 63.95 76.1 63.5 75.25 63.0 74.5 63.15 73.75 63.35 71.6 64.65 L70.45 65.3 Q68.95 65.95 67.55 65.95 L66.1 65.65 64.75 65.1" fill="none" stroke="#265573" stroke-linecap="round" stroke-linejoin="round" stroke-width="1.0"/>
      <path d="M73.35 24.6 Q75.25 25.75 77.9 28.95 79.3 31.7 79.55 35.05 80.05 40.35 77.45 44.8 74.55 49.85 69.6 49.85 65.7 49.85 61.9 44.8 58.45 40.25 58.1 36.25 57.55 30.2 61.7 26.25 64.85 23.25 67.2 23.25 71.1 23.25 73.35 24.6 M74.15 28.3 L74.0 28.05 72.55 26.6 Q71.85 26.25 71.0 26.25 69.35 26.25 68.85 27.25 68.4 28.05 68.6 30.0 69.0 34.3 72.5 34.3 73.8 34.3 74.35 32.75 74.75 31.7 74.65 30.5 L74.15 28.3" fill="#adfccd" fill-rule="evenodd" stroke="none"/>
      <path d="M74.15 28.3 L74.65 30.5 Q74.75 31.7 74.35 32.75 73.8 34.3 72.5 34.3 69.0 34.3 68.6 30.0 68.4 28.05 68.85 27.25 69.35 26.25 71.0 26.25 71.85 26.25 72.55 26.6 L74.0 28.05 74.15 28.3" fill="#d5ffe6" fill-rule="evenodd" stroke="none"/>
      <path d="M78.2 30.65 Q78.75 28.85 79.45 27.75 81.05 25.15 83.75 25.15 85.3 25.15 87.2 26.95 88.4 29.35 89.2 31.85 86.8 29.9 84.3 29.9 80.7 29.9 79.4 33.8 78.95 35.15 78.35 39.0 78.0 35.25 78.2 30.65" fill="#5b2a42" fill-rule="evenodd" stroke="none"/>
      <path d="M87.2 26.95 Q85.3 25.15 83.75 25.15 81.05 25.15 79.45 27.75 78.75 28.85 78.2 30.65 78.55 24.1 79.85 15.85 84.5 21.25 87.2 26.95" fill="#40223e" fill-rule="evenodd" stroke="none"/>
      <path d="M78.35 39.0 Q78.95 35.15 79.4 33.8 80.7 29.9 84.3 29.9 86.8 29.9 89.2 31.85 92.35 41.45 90.1 51.8 87.0 54.9 82.8 51.7 79.15 47.75 78.35 39.0" fill="#81425d" fill-rule="evenodd" stroke="none"/>
      <path d="M78.2 30.65 Q78.0 35.25 78.35 39.0 79.15 47.75 82.8 51.7 87.0 54.9 90.1 51.8 92.35 41.45 89.2 31.85 88.4 29.35 87.2 26.95 84.5 21.25 79.85 15.85 78.55 24.1 78.2 30.65 Z" fill="none" stroke="#265573" stroke-linecap="round" stroke-linejoin="round" stroke-width="1.0"/>
    </g>
    <g id="shape3" transform="matrix(1.0, 0.0, 0.0, 1.0, -79.5, -37.6)">
      <path d="M80.75 38.85 Q85.0 43.4 89.7 41.3" fill="none" stroke="#230930" stroke-linecap="round" stroke-linejoin="round" stroke-width="2.5"/>
    </g>
    <g id="shape4" transform="matrix(1.0, 0.0, 0.0, 1.0, -13.1, -16.0)">
      <path d="M28.3 16.55 Q43.95 16.05 51.6 22.75 53.55 24.6 54.9 26.9 L56.9 30.6 Q57.95 32.9 58.55 35.25 59.1 37.75 59.25 40.4 L59.3 41.05 Q59.3 43.85 58.6 46.45 L58.2 47.7 57.3 49.9 56.0 52.1 53.75 54.7 53.35 55.05 51.35 56.6 50.15 57.4 Q45.4 60.3 40.65 60.6 37.45 60.8 34.45 59.8 32.0 59.05 29.8 57.7 27.15 56.1 25.2 53.6 23.3 51.15 21.75 48.45 L19.95 45.15 Q18.75 42.65 17.8 39.8 21.35 39.35 24.6 35.85 29.35 30.75 29.35 21.8 29.35 19.4 28.3 16.55" fill="#81425d" fill-rule="evenodd" stroke="none"/>
      <path d="M14.85 28.15 Q14.1 23.45 13.6 18.15 L22.95 16.85 23.4 20.2 Q23.4 24.75 21.4 26.75 19.85 28.35 16.85 28.35 L14.85 28.15" fill="#40223e" fill-rule="evenodd" stroke="none"/>
      <path d="M17.8 39.8 Q16.05 34.5 14.85 28.15 L16.85 28.35 Q19.85 28.35 21.4 26.75 23.4 24.75 23.4 20.2 L22.95 16.85 28.3 16.55 Q29.35 19.4 29.35 21.8 29.35 30.75 24.6 35.85 21.35 39.35 17.8 39.8" fill="#5b2a42" fill-rule="evenodd" stroke="none"/>
      <path d="M28.3 16.55 Q43.95 16.05 51.6 22.75 53.55 24.6 54.9 26.9 L56.9 30.6 Q57.95 32.9 58.55 35.25 59.1 37.75 59.25 40.4 L59.3 41.05 Q59.3 43.85 58.6 46.45 L58.2 47.7 57.3 49.9 56.0 52.1 53.75 54.7 53.35 55.05 51.35 56.6 50.15 57.4 Q45.4 60.3 40.65 60.6 37.45 60.8 34.45 59.8 32.0 59.05 29.8 57.7 27.15 56.1 25.2 53.6 23.3 51.15 21.75 48.45 L19.95 45.15 Q18.75 42.65 17.8 39.8 16.05 34.5 14.85 28.15 14.1 23.45 13.6 18.15 L22.95 16.85 28.3 16.55 Z" fill="none" stroke="#411d33" stroke-linecap="round" stroke-linejoin="round" stroke-width="1.0"/>
    </g>
    <g id="shape5" transform="matrix(1.0, 0.0, 0.0, 1.0, -27.35, -39.1)">
      <path d="M28.6 47.3 Q41.75 47.7 48.35 40.35" fill="none" stroke="#230930" stroke-linecap="round" stroke-linejoin="round" stroke-width="2.5"/>
    </g>
    <g id="shape6" transform="matrix(1.0, 0.0, 0.0, 1.0, 1.25, 1.0)">
      <path d="M11.3 0.25 L12.45 0.1 14.95 0.0 15.3 0.0 18.5 0.65 Q21.7 1.25 24.65 4.9 27.65 8.55 26.25 13.05 L24.45 14.6 Q22.05 15.25 18.3 17.25 12.8 20.25 8.3 20.25 L1.9 19.4 1.55 18.85 1.15 17.95 Q3.35 18.7 5.7 18.7 10.6 18.7 15.05 16.3 20.2 13.55 20.2 9.35 20.2 5.9 16.25 2.8 13.55 0.7 11.3 0.25" fill="#3ad3e5" fill-rule="evenodd" stroke="none"/>
      <path d="M1.9 19.4 L8.3 20.25 Q12.8 20.25 18.3 17.25 22.05 15.25 24.45 14.6 L20.5 17.7 Q17.55 19.85 15.3 20.85 11.85 22.3 9.15 22.6 4.25 23.05 1.9 19.4" fill="#adfccd" fill-rule="evenodd" stroke="none"/>
      <path d="M11.3 0.25 Q13.55 0.7 16.25 2.8 20.2 5.9 20.2 9.35 20.2 13.55 15.05 16.3 10.6 18.7 5.7 18.7 3.35 18.7 1.15 17.95 0.45 16.2 0.1 13.8 -1.05 1.7 11.3 0.25 M13.45 6.05 L13.25 5.75 13.4 6.15 Q11.2 2.8 8.9 2.8 6.65 2.8 4.75 4.8 2.75 6.8 2.75 9.0 2.75 11.2 4.55 13.4 6.3 15.65 8.55 15.6 10.8 15.5 12.25 14.3 14.25 12.7 14.25 9.35 L14.0 7.85 13.6 6.25 13.45 6.05" fill="#2c4c61" fill-rule="evenodd" stroke="none"/>
      <path d="M13.45 6.05 L13.6 6.25 14.0 7.85 14.25 9.35 Q14.25 12.7 12.25 14.3 10.8 15.5 8.55 15.6 6.3 15.65 4.55 13.4 2.75 11.2 2.75 9.0 2.75 6.8 4.75 4.8 6.65 2.8 8.9 2.8 11.2 2.8 13.4 6.15 L13.25 5.75 13.45 6.05 M3.55 7.25 Q3.55 7.9 4.0 8.75 4.65 9.85 5.65 9.85 6.5 9.85 7.0 9.1 7.55 8.4 7.55 7.15 L7.45 6.6 Q7.25 5.55 6.1 5.05 5.0 4.5 4.25 5.4 3.55 6.25 3.55 7.25" fill="#252944" fill-rule="evenodd" stroke="none"/>
      <path d="M3.55 7.25 Q3.55 6.25 4.25 5.4 5.0 4.5 6.1 5.05 7.25 5.55 7.45 6.6 L7.55 7.15 Q7.55 8.4 7.0 9.1 6.5 9.85 5.65 9.85 4.65 9.85 4.0 8.75 3.55 7.9 3.55 7.25" fill="#efbccf" fill-rule="evenodd" stroke="none"/>
      <path d="M1.15 17.95 L1.55 18.85 1.9 19.4 Q4.25 23.05 9.15 22.6 11.85 22.3 15.3 20.85 17.55 19.85 20.5 17.7 L24.45 14.6 26.25 13.05 26.95 12.4 M11.3 0.25 Q-1.05 1.7 0.1 13.8 0.45 16.2 1.15 17.95" fill="none" stroke="#230930" stroke-linecap="round" stroke-linejoin="round" stroke-width="2.5"/>
    </g>
  </defs>
</svg>
