<?xml version="1.0" encoding="UTF-8" standalone="no"?>
<svg xmlns:ffdec="https://www.free-decompiler.com/flash" xmlns:xlink="http://www.w3.org/1999/xlink" ffdec:objectType="frame" height="129.45px" width="105.05px" xmlns="http://www.w3.org/2000/svg">
  <g transform="matrix(1.0, 0.0, 0.0, 1.0, 7.2, 10.75)">
    <use ffdec:characterId="13" height="80.95" transform="matrix(1.0, 0.0, 0.0, 1.0, -4.2, 34.2)" width="47.35" xlink:href="#shape0"/>
    <use ffdec:characterId="2" height="25.15" transform="matrix(0.9543, -0.293, 0.293, 0.9543, 64.4909, 59.8235)" width="26.75" xlink:href="#shape1"/>
    <use ffdec:characterId="3" height="83.15" transform="matrix(0.9971, -0.0699, 0.0699, 0.9971, -3.5337, 5.141)" width="93.55" xlink:href="#shape2"/>
    <use ffdec:characterId="4" height="19.35" transform="matrix(0.9971, -0.0699, 0.0699, 0.9971, 81.2927, 31.7099)" width="9.25" xlink:href="#shape3"/>
    <use ffdec:characterId="5" height="45.15" transform="matrix(0.9971, -0.0699, 0.0699, 0.9971, 11.98, 21.3379)" width="46.7" xlink:href="#shape4"/>
    <use ffdec:characterId="6" height="45.15" transform="matrix(0.9971, -0.0699, 0.0699, 0.9971, 11.98, 21.3379)" width="46.7" xlink:href="#shape5"/>
    <use ffdec:characterId="7" height="24.9" transform="matrix(0.9917, 0.122, -0.122, 0.9917, 9.5323, 57.3058)" width="29.45" xlink:href="#shape6"/>
  </g>
  <defs>
    <g id="shape0" transform="matrix(1.0, 0.0, 0.0, 1.0, 4.2, 1.25)">
      <path d="M-2.9 40.9 L-2.85 39.9 -2.45 35.75 Q-1.15 25.35 3.85 15.75 6.7 10.2 10.65 5.05 L12.45 2.85 13.3 1.8 14.5 0.0 Q22.0 21.05 34.35 38.25 26.3 37.5 28.15 39.25 L31.1 38.95 28.2 39.3 Q26.3 38.9 25.7 39.3 L22.05 41.75 21.2 42.1 Q19.2 43.05 17.05 43.4 L12.4 43.5 Q11.05 43.7 10.2 44.45 L9.25 42.85 7.25 40.65 Q5.75 39.4 4.15 39.25 2.05 39.1 -0.7 40.05 -1.3 40.2 -1.95 40.5 L-2.9 40.9" fill="#3ad3e5" fill-rule="evenodd" stroke="none"/>
      <path d="M10.2 44.45 Q9.1 45.5 8.9 47.6 L8.9 47.95 8.85 48.9 8.8 49.2 8.8 49.25 Q7.4 48.4 5.6 48.3 3.7 48.15 0.75 49.65 -1.05 50.7 -2.2 51.9 -2.95 47.05 -2.85 41.2 L-2.95 42.05 -2.9 40.9 -1.95 40.5 Q-1.3 40.2 -0.7 40.05 2.05 39.1 4.15 39.25 5.75 39.4 7.25 40.65 L9.25 42.85 10.2 44.45 M8.8 49.2 L8.9 47.6 8.8 49.2" fill="#26596c" fill-rule="evenodd" stroke="none"/>
      <path d="M-2.2 51.9 Q-1.05 50.7 0.75 49.65 3.7 48.15 5.6 48.3 7.4 48.4 8.8 49.25 L8.8 51.8 6.75 51.6 Q3.8 51.35 0.7 52.95 L-1.7 54.4 -2.2 51.9" fill="#2b3b52" fill-rule="evenodd" stroke="none"/>
      <path d="M12.6 58.15 Q15.1 60.4 19.2 61.75 L19.05 64.65 Q18.95 70.3 17.6 71.8 L16.05 73.5 15.5 73.7 14.9 73.7 Q13.7 73.45 11.7 72.2 L11.4 72.05 8.75 71.35 Q6.2 70.6 4.8 68.45 L2.7 65.1 1.75 63.6 Q2.75 60.4 5.65 58.1 7.65 56.55 9.8 55.8 10.7 57.25 12.6 58.15 M6.5 61.8 Q5.8 62.35 5.75 63.25 5.65 64.1 6.3 64.75 6.9 65.45 7.7 65.55 8.6 65.6 9.25 65.0 9.85 64.45 9.95 63.6 10.0 62.7 9.45 62.05 8.9 61.4 8.0 61.35 7.2 61.25 6.5 61.8" fill="#17003c" fill-rule="evenodd" stroke="none"/>
      <path d="M-1.7 54.4 L0.7 52.95 Q3.8 51.35 6.75 51.6 L8.8 51.8 Q9.0 54.0 9.8 55.8 7.65 56.55 5.65 58.1 2.75 60.4 1.75 63.6 0.3 61.15 -0.65 58.15 L-1.7 54.4" fill="#220154" fill-rule="evenodd" stroke="none"/>
      <path d="M6.5 61.8 Q7.2 61.25 8.0 61.35 8.9 61.4 9.45 62.05 10.0 62.7 9.95 63.6 9.85 64.45 9.25 65.0 8.6 65.6 7.7 65.55 6.9 65.45 6.3 64.75 5.65 64.1 5.75 63.25 5.8 62.35 6.5 61.8 M8.35 61.6 L7.4 61.75 Q6.6 62.1 6.5 63.0 6.5 64.7 7.8 64.8 9.4 64.9 9.5 63.3 L9.4 62.7 9.25 62.25 Q9.0 61.65 8.35 61.6" fill="#efbccf" fill-rule="evenodd" stroke="none"/>
      <path d="M8.35 61.6 Q9.0 61.65 9.25 62.25 L9.4 62.7 9.5 63.3 Q9.4 64.9 7.8 64.8 6.5 64.7 6.5 63.0 6.6 62.1 7.4 61.75 L8.35 61.6" fill="#ebd7d6" fill-rule="evenodd" stroke="none"/>
      <path d="M-2.9 40.9 L-2.85 39.9 -2.45 35.75 Q-1.15 25.35 3.85 15.75 6.7 10.2 10.65 5.05 L12.45 2.85 13.3 1.8 14.5 0.0 M28.15 39.25 L31.1 38.95 33.95 38.65 M10.2 44.45 Q9.1 45.5 8.9 47.6 L8.9 47.95 8.85 48.9 8.8 49.2 8.8 49.25 Q8.85 54.7 12.6 58.15 15.1 60.4 19.2 61.75 22.3 62.75 26.4 63.25 M10.2 44.45 Q11.05 43.7 12.4 43.5 L17.05 43.4 Q19.2 43.05 21.2 42.1 L22.05 41.75 25.7 39.3 Q26.3 38.9 28.2 39.3 L31.1 38.95 M8.9 47.6 L8.8 49.2 M-2.2 51.9 L-1.7 54.4 Q1.05 73.0 14.9 73.7 L15.5 73.7 M8.8 51.8 L8.8 49.25 M9.8 55.8 Q9.0 54.0 8.8 51.8 M9.8 55.8 Q10.7 57.25 12.6 58.15 M-2.2 51.9 Q-2.95 47.05 -2.85 41.2 L-2.95 42.05 -2.9 40.9" fill="none" stroke="#230930" stroke-linecap="round" stroke-linejoin="round" stroke-width="2.5"/>
      <path d="M35.35 57.75 Q36.0 59.3 35.4 60.9 34.8 62.45 33.25 63.2 L30.1 63.25 Q28.55 62.65 27.8 61.1 27.1 59.55 27.7 58.0 28.3 56.4 29.9 55.65 L33.0 55.55 Q34.6 56.15 35.35 57.75 M34.55 59.8 Q34.9 58.9 34.3 57.45 33.8 56.9 33.25 56.75 32.15 56.3 31.05 56.75 29.8 57.25 29.35 58.45 29.0 59.4 29.35 60.15 29.7 60.85 30.75 61.25 L32.95 61.3 Q34.15 60.85 34.55 59.8 M22.8 60.2 Q23.85 60.55 24.35 61.6 24.85 62.6 24.4 63.75 24.0 64.75 23.0 65.25 L20.85 65.35 Q19.8 64.9 19.35 63.85 18.85 62.8 19.25 61.8 19.7 60.65 20.7 60.2 21.75 59.75 22.8 60.2 M22.75 60.8 L21.25 60.85 Q20.45 61.25 20.05 62.35 19.85 62.85 20.1 63.35 20.4 64.05 21.1 64.35 21.95 64.5 22.7 63.9 23.55 63.25 23.6 62.9 23.6 62.15 23.25 61.5 L22.75 60.8 M21.75 71.2 Q20.7 71.65 20.45 72.4 19.85 73.9 21.4 74.5 L22.75 74.55 Q23.7 74.3 24.1 73.35 L24.1 73.3 24.0 72.3 23.9 71.95 Q23.7 71.35 22.95 71.05 L21.75 71.2 M29.35 74.05 Q28.65 73.25 28.95 72.1 29.35 70.95 30.5 70.2 31.55 69.45 32.8 69.55 34.05 69.7 34.8 70.55 35.45 71.45 35.1 72.55 34.8 73.7 33.7 74.45 32.55 75.15 31.2 75.1 30.0 74.95 29.35 74.05 M25.05 71.9 Q25.45 72.85 25.1 73.85 24.7 74.9 23.7 75.35 L21.65 75.4 Q20.7 75.05 20.25 74.05 19.8 73.05 20.2 72.0 20.55 71.0 21.6 70.6 L23.5 70.5 Q24.55 70.9 25.05 71.9 M30.55 73.1 Q30.7 73.75 31.05 73.9 L32.65 73.65 33.6 73.1 34.15 72.5 34.2 72.45 34.25 72.1 34.25 72.05 34.2 71.8 34.05 71.2 33.0 70.2 31.8 70.35 Q31.0 70.8 30.55 71.9 30.4 72.45 30.55 73.1" fill="#efbccf" fill-rule="evenodd" stroke="none"/>
      <path d="M32.35 50.75 Q37.1 52.1 40.3 57.7 44.55 66.9 37.4 74.5 L34.45 76.3 Q24.2 81.55 13.2 74.0 12.05 73.6 13.15 71.7 L15.75 65.95 17.0 62.35 17.65 62.85 Q18.35 64.3 19.3 65.2 L18.85 63.3 Q18.4 60.4 19.0 58.85 20.7 54.35 25.85 52.0 29.35 50.45 32.35 50.75 M35.35 57.75 Q34.6 56.15 33.0 55.55 L29.9 55.65 Q28.3 56.4 27.7 58.0 27.1 59.55 27.8 61.1 28.55 62.65 30.1 63.25 L33.25 63.2 Q34.8 62.45 35.4 60.9 36.0 59.3 35.35 57.75 M22.8 60.2 Q21.75 59.75 20.7 60.2 19.7 60.65 19.25 61.8 18.85 62.8 19.35 63.85 19.8 64.9 20.85 65.35 L23.0 65.25 Q24.0 64.75 24.4 63.75 24.85 62.6 24.35 61.6 23.85 60.55 22.8 60.2 M25.05 71.9 Q24.55 70.9 23.5 70.5 L21.6 70.6 Q20.55 71.0 20.2 72.0 19.8 73.05 20.25 74.05 20.7 75.05 21.65 75.4 L23.7 75.35 Q24.7 74.9 25.1 73.85 25.45 72.85 25.05 71.9 M29.35 74.05 Q30.0 74.95 31.2 75.1 32.55 75.15 33.7 74.45 34.8 73.7 35.1 72.55 35.45 71.45 34.8 70.55 34.05 69.7 32.8 69.55 31.55 69.45 30.5 70.2 29.35 70.95 28.95 72.1 28.65 73.25 29.35 74.05" fill="#130029" fill-rule="evenodd" stroke="none"/>
      <path d="M34.55 59.8 Q34.15 60.85 32.95 61.3 L30.75 61.25 Q29.7 60.85 29.35 60.15 29.0 59.4 29.35 58.45 29.8 57.25 31.05 56.75 32.15 56.3 33.25 56.75 33.8 56.9 34.3 57.45 34.9 58.9 34.55 59.8 M22.75 60.8 L23.25 61.5 Q23.6 62.15 23.6 62.9 23.55 63.25 22.7 63.9 21.95 64.5 21.1 64.35 20.4 64.05 20.1 63.35 19.85 62.85 20.05 62.35 20.45 61.25 21.25 60.85 L22.75 60.8 M21.75 71.2 L22.95 71.05 Q23.7 71.35 23.9 71.95 L24.0 72.3 24.1 73.3 24.1 73.35 Q23.7 74.3 22.75 74.55 L21.4 74.5 Q19.85 73.9 20.45 72.4 20.7 71.65 21.75 71.2 M30.55 73.1 Q30.4 72.45 30.55 71.9 31.0 70.8 31.8 70.35 L33.0 70.2 34.05 71.2 34.2 71.8 34.25 72.05 34.25 72.1 34.2 72.45 34.15 72.5 33.6 73.1 32.65 73.65 31.05 73.9 Q30.7 73.75 30.55 73.1" fill="#ebd7d6" fill-rule="evenodd" stroke="none"/>
      <path d="M32.35 50.75 Q29.35 50.45 25.85 52.0 20.7 54.35 19.0 58.85 18.4 60.4 18.85 63.3 L19.3 65.2 Q18.35 64.3 17.65 62.85 L17.55 62.6 17.2 61.3 17.8 61.25 17.2 61.05 17.1 60.55 Q16.65 55.9 21.6 52.4 L21.8 52.25 Q27.85 49.45 32.35 50.75" fill="#2a2446" fill-rule="evenodd" stroke="none"/>
      <path d="M13.2 74.0 Q24.2 81.55 34.45 76.3 L37.4 74.5 Q44.55 66.9 40.3 57.7 37.1 52.1 32.35 50.75 27.85 49.45 21.8 52.25 L21.6 52.4 Q16.65 55.9 17.1 60.55 L17.2 61.05 17.2 61.3 17.55 62.6 17.65 62.85" fill="none" stroke="#230930" stroke-linecap="round" stroke-linejoin="round" stroke-width="2.5"/>
    </g>
    <g id="shape1" transform="matrix(1.0, 0.0, 0.0, 1.0, 1.25, 1.25)">
      <path d="M24.15 14.3 L22.4 14.1 Q20.6 13.55 20.45 9.9 20.6 8.85 21.4 8.3 L21.5 8.45 Q23.1 10.9 23.8 12.8 L24.15 14.25 24.15 14.3" fill="#efbccf" fill-rule="evenodd" stroke="none"/>
      <path d="M21.4 8.3 Q20.6 8.85 20.45 9.9 20.6 13.55 22.4 14.1 L24.15 14.3 24.25 15.2 Q24.25 17.25 23.0 18.85 20.9 18.75 19.35 16.05 17.75 13.3 17.75 9.5 17.75 6.55 17.9 6.25 18.1 5.75 19.25 5.25 L20.0 6.3 21.4 8.3" fill="#252944" fill-rule="evenodd" stroke="none"/>
      <path d="M19.25 5.25 Q18.1 5.75 17.9 6.25 17.75 6.55 17.75 9.5 17.75 13.3 19.35 16.05 20.9 18.75 23.0 18.85 L21.5 20.25 20.8 20.75 19.9 21.25 18.3 21.9 17.65 21.2 17.1 20.25 16.55 19.25 Q15.0 15.6 15.0 9.9 15.0 6.05 15.9 4.35 16.35 3.5 17.15 3.05 L18.65 4.55 19.25 5.25" fill="#2c4c61" fill-rule="evenodd" stroke="none"/>
      <path d="M5.6 1.35 Q6.35 0.85 7.2 0.55 L12.5 0.25 Q13.5 0.55 14.35 1.05 L15.85 2.0 17.15 3.05 Q16.35 3.5 15.9 4.35 15.0 6.05 15.0 9.9 15.0 15.6 16.55 19.25 L17.1 20.25 17.65 21.2 Q10.35 20.75 6.65 17.65 2.7 14.3 2.7 7.55 2.7 6.4 4.45 3.2 L5.6 1.35" fill="#3ad3e5" fill-rule="evenodd" stroke="none"/>
      <path d="M18.3 21.9 Q16.0 22.65 13.1 22.65 7.5 22.65 3.8 19.3 0.0 15.9 0.0 10.65 0.0 7.6 2.15 4.55 L2.5 4.1 Q3.85 2.4 5.6 1.35 L4.45 3.2 Q2.7 6.4 2.7 7.55 2.7 14.3 6.65 17.65 10.35 20.75 17.65 21.2 L18.3 21.9" fill="#adfccd" fill-rule="evenodd" stroke="none"/>
      <path d="M21.4 8.3 L20.0 6.3 19.25 5.25 18.65 4.55 17.15 3.05 15.85 2.0 14.35 1.05 Q13.5 0.55 12.5 0.25 L7.2 0.55 Q6.35 0.85 5.6 1.35 3.85 2.4 2.5 4.1 L2.15 4.55 Q0.0 7.6 0.0 10.65 0.0 15.9 3.8 19.3 7.5 22.65 13.1 22.65 16.0 22.65 18.3 21.9 L19.9 21.25 20.8 20.75 21.5 20.25 23.0 18.85 Q24.25 17.25 24.25 15.2 L24.15 14.3 24.15 14.25 23.8 12.8 Q23.1 10.9 21.5 8.45 L21.4 8.3 Z" fill="none" stroke="#230930" stroke-linecap="round" stroke-linejoin="round" stroke-width="2.5"/>
    </g>
    <g id="shape2" transform="matrix(1.0, 0.0, 0.0, 1.0, 1.25, 1.25)">
      <path d="M88.45 28.7 Q90.1 32.75 90.7 37.1 92.1 47.0 88.25 58.45 L85.9 63.2 Q83.4 65.55 80.15 67.6 73.3 72.0 68.65 72.0 55.05 72.0 45.65 62.85 36.9 54.5 36.9 44.2 36.9 33.35 44.05 25.95 51.4 18.4 62.7 18.4 78.85 18.4 88.45 28.7" fill="#67e9b9" fill-rule="evenodd" stroke="none"/>
      <path d="M85.9 63.2 L85.5 63.9 85.4 64.1 83.8 66.55 Q80.45 71.25 76.2 74.4 73.9 76.1 71.25 77.35 68.1 78.85 64.5 79.7 L61.7 79.9 Q48.95 79.9 39.65 72.2 L35.7 68.4 Q31.35 63.65 28.9 57.8 26.6 52.2 26.6 47.2 26.6 41.85 29.85 37.1 L30.55 36.15 33.3 32.95 Q34.5 31.45 34.5 30.7 34.5 29.6 33.6 28.35 L31.55 25.8 Q28.55 21.95 20.4 17.3 12.25 12.6 19.3 11.45 26.4 10.25 33.9 10.2 L52.6 11.6 Q65.65 13.35 75.5 15.35 71.4 10.85 66.6 7.75 L61.8 4.6 Q60.9 3.85 60.9 2.95 L61.3 2.35 61.45 2.2 Q66.7 4.95 70.95 8.0 78.95 13.7 83.8 20.3 L85.35 22.6 Q87.2 25.55 88.45 28.7 78.85 18.4 62.7 18.4 51.4 18.4 44.05 25.95 36.9 33.35 36.9 44.2 36.9 54.5 45.65 62.85 55.05 72.0 68.65 72.0 73.3 72.0 80.15 67.6 83.4 65.55 85.9 63.2" fill="#5dd7c8" fill-rule="evenodd" stroke="none"/>
      <path d="M64.5 79.7 Q58.15 81.1 50.45 80.4 L49.7 80.3 49.05 80.25 44.15 79.15 Q40.2 78.15 37.2 75.9 L32.85 72.2 32.55 71.8 29.5 69.2 Q14.1 56.6 12.9 32.4 L11.85 33.05 Q13.2 30.25 13.2 29.45 L13.15 29.05 Q12.95 27.6 11.75 26.25 L3.1 17.95 1.8 16.6 1.45 16.25 Q-2.25 12.6 3.5 10.7 4.9 10.25 6.85 9.9 L9.35 9.55 9.5 9.5 Q40.1 2.2 57.8 6.8 52.0 -2.15 58.55 0.7 L61.45 2.2 61.3 2.35 60.9 2.95 Q60.9 3.85 61.8 4.6 L66.6 7.75 Q71.4 10.85 75.5 15.35 65.65 13.35 52.6 11.6 L33.9 10.2 Q26.4 10.25 19.3 11.45 12.25 12.6 20.4 17.3 28.55 21.95 31.55 25.8 L33.6 28.35 Q34.5 29.6 34.5 30.7 34.5 31.45 33.3 32.95 L30.55 36.15 29.85 37.1 Q26.6 41.85 26.6 47.2 26.6 52.2 28.9 57.8 31.35 63.65 35.7 68.4 L39.65 72.2 Q48.95 79.9 61.7 79.9 L64.5 79.7 M69.05 11.8 Q64.3 8.4 57.8 6.8 64.3 8.4 69.05 11.8" fill="#3ad3e5" fill-rule="evenodd" stroke="none"/>
      <path d="M88.45 28.7 Q90.1 32.75 90.7 37.1 92.1 47.0 88.25 58.45 L85.9 63.2 85.5 63.9 85.4 64.1 83.8 66.55 Q80.45 71.25 76.2 74.4 73.9 76.1 71.25 77.35 68.1 78.85 64.5 79.7 58.15 81.1 50.45 80.4 L49.7 80.3 49.05 80.25 44.15 79.15 Q40.2 78.15 37.2 75.9 L32.85 72.2 32.55 71.8 29.5 69.2 M11.85 33.05 Q13.2 30.25 13.2 29.45 L13.15 29.05 Q12.95 27.6 11.75 26.25 L3.1 17.95 1.8 16.6 1.45 16.25 Q-2.25 12.6 3.5 10.7 4.9 10.25 6.85 9.9 L9.35 9.55 9.5 9.5 Q40.1 2.2 57.8 6.8 52.0 -2.15 58.55 0.7 L61.45 2.2 Q66.7 4.95 70.95 8.0 78.95 13.7 83.8 20.3 L85.35 22.6 Q87.2 25.55 88.45 28.7" fill="none" stroke="#230930" stroke-linecap="round" stroke-linejoin="round" stroke-width="2.5"/>
      <path d="M57.8 6.8 Q64.3 8.4 69.05 11.8" fill="none" stroke="#265573" stroke-linecap="round" stroke-linejoin="round" stroke-width="1.0"/>
      <path d="M77.4 65.3 Q76.95 63.95 76.1 63.5 75.25 63.0 74.5 63.15 73.75 63.35 71.6 64.65 L70.45 65.3 Q68.95 65.95 67.55 65.95 L66.1 65.65 64.75 65.1" fill="none" stroke="#265573" stroke-linecap="round" stroke-linejoin="round" stroke-width="1.0"/>
      <path d="M73.35 24.6 Q75.25 25.75 77.9 28.95 79.3 31.7 79.55 35.05 80.05 40.35 77.45 44.8 74.55 49.85 69.6 49.85 65.7 49.85 61.9 44.8 58.45 40.25 58.1 36.25 57.55 30.2 61.7 26.25 64.85 23.25 67.2 23.25 71.1 23.25 73.35 24.6 M74.15 28.3 L74.0 28.05 72.55 26.6 Q71.85 26.25 71.0 26.25 69.35 26.25 68.85 27.25 68.4 28.05 68.6 30.0 69.0 34.3 72.5 34.3 73.8 34.3 74.35 32.75 74.75 31.7 74.65 30.5 L74.15 28.3" fill="#adfccd" fill-rule="evenodd" stroke="none"/>
      <path d="M74.15 28.3 L74.65 30.5 Q74.75 31.7 74.35 32.75 73.8 34.3 72.5 34.3 69.0 34.3 68.6 30.0 68.4 28.05 68.85 27.25 69.35 26.25 71.0 26.25 71.85 26.25 72.55 26.6 L74.0 28.05 74.15 28.3" fill="#d5ffe6" fill-rule="evenodd" stroke="none"/>
      <path d="M78.2 30.65 Q78.75 28.85 79.45 27.75 81.05 25.15 83.75 25.15 85.3 25.15 87.2 26.95 88.4 29.35 89.2 31.85 86.8 29.9 84.3 29.9 80.7 29.9 79.4 33.8 78.95 35.15 78.35 39.0 78.0 35.25 78.2 30.65" fill="#5b2a42" fill-rule="evenodd" stroke="none"/>
      <path d="M87.2 26.95 Q85.3 25.15 83.75 25.15 81.05 25.15 79.45 27.75 78.75 28.85 78.2 30.65 78.55 24.1 79.85 15.85 84.5 21.25 87.2 26.95" fill="#40223e" fill-rule="evenodd" stroke="none"/>
      <path d="M78.35 39.0 Q78.95 35.15 79.4 33.8 80.7 29.9 84.3 29.9 86.8 29.9 89.2 31.85 92.35 41.45 90.1 51.8 87.0 54.9 82.8 51.7 79.15 47.75 78.35 39.0" fill="#81425d" fill-rule="evenodd" stroke="none"/>
      <path d="M78.2 30.65 Q78.0 35.25 78.35 39.0 79.15 47.75 82.8 51.7 87.0 54.9 90.1 51.8 92.35 41.45 89.2 31.85 88.4 29.35 87.2 26.95 84.5 21.25 79.85 15.85 78.55 24.1 78.2 30.65 Z" fill="none" stroke="#265573" stroke-linecap="round" stroke-linejoin="round" stroke-width="1.0"/>
    </g>
    <g id="shape3" transform="matrix(1.0, 0.0, 0.0, 1.0, -81.55, -31.2)">
      <path d="M84.1 35.45 Q83.65 36.4 83.65 37.75 83.65 39.1 84.1 40.0 84.5 40.95 85.1 40.95 85.65 40.95 86.1 40.0 86.5 39.1 86.5 37.75 86.5 36.4 86.1 35.45 85.65 34.5 85.1 34.5 84.5 34.5 84.1 35.45 M82.5 34.0 Q83.65 31.2 85.5 31.2 87.4 31.2 88.95 34.0 90.45 36.85 90.75 40.85 91.05 44.9 89.9 47.7 88.75 50.55 86.9 50.55 85.05 50.55 83.45 47.7 81.9 44.9 81.6 40.85 81.35 36.85 82.5 34.0" fill="#180823" fill-rule="evenodd" stroke="none"/>
      <path d="M84.1 35.45 Q84.5 34.5 85.1 34.5 85.65 34.5 86.1 35.45 86.5 36.4 86.5 37.75 86.5 39.1 86.1 40.0 85.65 40.95 85.1 40.95 84.5 40.95 84.1 40.0 83.65 39.1 83.65 37.75 83.65 36.4 84.1 35.45" fill="#ffffff" fill-rule="evenodd" stroke="none"/>
    </g>
    <g id="shape4" transform="matrix(1.0, 0.0, 0.0, 1.0, -13.1, -16.0)">
      <path d="M28.3 16.55 Q43.95 16.05 51.6 22.75 53.55 24.6 54.9 26.9 L56.9 30.6 Q57.95 32.9 58.55 35.25 59.1 37.75 59.25 40.4 L59.3 41.05 Q59.3 43.85 58.6 46.45 L58.2 47.7 57.3 49.9 56.0 52.1 53.75 54.7 53.35 55.05 51.35 56.6 50.15 57.4 Q45.4 60.3 40.65 60.6 37.45 60.8 34.45 59.8 32.0 59.05 29.8 57.7 27.15 56.1 25.2 53.6 23.3 51.15 21.75 48.45 L19.95 45.15 Q18.75 42.65 17.8 39.8 21.35 39.35 24.6 35.85 29.35 30.75 29.35 21.8 29.35 19.4 28.3 16.55" fill="#81425d" fill-rule="evenodd" stroke="none"/>
      <path d="M14.85 28.15 Q14.1 23.45 13.6 18.15 L22.95 16.85 23.4 20.2 Q23.4 24.75 21.4 26.75 19.85 28.35 16.85 28.35 L14.85 28.15" fill="#40223e" fill-rule="evenodd" stroke="none"/>
      <path d="M17.8 39.8 Q16.05 34.5 14.85 28.15 L16.85 28.35 Q19.85 28.35 21.4 26.75 23.4 24.75 23.4 20.2 L22.95 16.85 28.3 16.55 Q29.35 19.4 29.35 21.8 29.35 30.75 24.6 35.85 21.35 39.35 17.8 39.8" fill="#5b2a42" fill-rule="evenodd" stroke="none"/>
      <path d="M28.3 16.55 Q43.95 16.05 51.6 22.75 53.55 24.6 54.9 26.9 L56.9 30.6 Q57.95 32.9 58.55 35.25 59.1 37.75 59.25 40.4 L59.3 41.05 Q59.3 43.85 58.6 46.45 L58.2 47.7 57.3 49.9 56.0 52.1 53.75 54.7 53.35 55.05 51.35 56.6 50.15 57.4 Q45.4 60.3 40.65 60.6 37.45 60.8 34.45 59.8 32.0 59.05 29.8 57.7 27.15 56.1 25.2 53.6 23.3 51.15 21.75 48.45 L19.95 45.15 Q18.75 42.65 17.8 39.8 16.05 34.5 14.85 28.15 14.1 23.45 13.6 18.15 L22.95 16.85 28.3 16.55 Z" fill="none" stroke="#411d33" stroke-linecap="round" stroke-linejoin="round" stroke-width="1.0"/>
    </g>
    <g id="shape5" transform="matrix(1.0, 0.0, 0.0, 1.0, -13.1, -16.0)">
      <path d="M28.3 16.55 Q43.95 16.05 51.6 22.75 53.55 24.6 54.9 26.9 L56.9 30.6 Q57.95 32.9 58.55 35.25 59.1 37.75 59.25 40.4 L59.3 41.05 Q59.3 43.85 58.6 46.45 L58.2 47.7 57.3 49.9 56.0 52.1 53.75 54.7 53.35 55.05 51.35 56.6 50.15 57.4 Q45.4 60.3 40.65 60.6 37.45 60.8 34.45 59.8 32.0 59.05 29.8 57.7 27.15 56.1 25.2 53.6 23.3 51.15 21.75 48.45 L19.95 45.15 Q18.75 42.65 17.8 39.8 21.35 39.35 24.6 35.85 29.35 30.75 29.35 21.8 29.35 19.4 28.3 16.55 M44.5 32.4 Q41.35 28.8 37.2 28.8 33.1 28.8 30.45 32.4 27.75 35.95 28.1 41.05 28.4 46.1 31.55 49.7 34.7 53.25 38.8 53.25 42.95 53.25 45.6 49.7 48.25 46.1 47.95 41.05 47.55 35.95 44.5 32.4" fill="#81425d" fill-rule="evenodd" stroke="none"/>
      <path d="M44.5 32.4 Q47.55 35.95 47.95 41.05 48.25 46.1 45.6 49.7 42.95 53.25 38.8 53.25 34.7 53.25 31.55 49.7 28.4 46.1 28.1 41.05 27.75 35.95 30.45 32.4 33.1 28.8 37.2 28.8 41.35 28.8 44.5 32.4 M31.7 33.3 Q30.6 34.7 30.45 36.6 30.3 38.6 31.2 39.95 32.0 41.35 33.35 41.35 34.7 41.35 35.75 39.95 36.75 38.6 36.9 36.6 37.0 34.7 36.25 33.3 35.45 31.95 34.1 31.95 32.75 31.95 31.7 33.3" fill="#180823" fill-rule="evenodd" stroke="none"/>
      <path d="M14.85 28.15 Q14.1 23.45 13.6 18.15 L22.95 16.85 23.4 20.2 Q23.4 24.75 21.4 26.75 19.85 28.35 16.85 28.35 L14.85 28.15" fill="#40223e" fill-rule="evenodd" stroke="none"/>
      <path d="M17.8 39.8 Q16.05 34.5 14.85 28.15 L16.85 28.35 Q19.85 28.35 21.4 26.75 23.4 24.75 23.4 20.2 L22.95 16.85 28.3 16.55 Q29.35 19.4 29.35 21.8 29.35 30.75 24.6 35.85 21.35 39.35 17.8 39.8" fill="#5b2a42" fill-rule="evenodd" stroke="none"/>
      <path d="M31.7 33.3 Q32.75 31.95 34.1 31.95 35.45 31.95 36.25 33.3 37.0 34.7 36.9 36.6 36.75 38.6 35.75 39.95 34.7 41.35 33.35 41.35 32.0 41.35 31.2 39.95 30.3 38.6 30.45 36.6 30.6 34.7 31.7 33.3" fill="#ffffff" fill-rule="evenodd" stroke="none"/>
      <path d="M28.3 16.55 Q43.95 16.05 51.6 22.75 53.55 24.6 54.9 26.9 L56.9 30.6 Q57.95 32.9 58.55 35.25 59.1 37.75 59.25 40.4 L59.3 41.05 Q59.3 43.85 58.6 46.45 L58.2 47.7 57.3 49.9 56.0 52.1 53.75 54.7 53.35 55.05 51.35 56.6 50.15 57.4 Q45.4 60.3 40.65 60.6 37.45 60.8 34.45 59.8 32.0 59.05 29.8 57.7 27.15 56.1 25.2 53.6 23.3 51.15 21.75 48.45 L19.95 45.15 Q18.75 42.65 17.8 39.8 16.05 34.5 14.85 28.15 14.1 23.45 13.6 18.15 L22.95 16.85 28.3 16.55 Z" fill="none" stroke="#411d33" stroke-linecap="round" stroke-linejoin="round" stroke-width="1.0"/>
    </g>
    <g id="shape6" transform="matrix(1.0, 0.0, 0.0, 1.0, 1.25, 1.0)">
      <path d="M11.3 0.25 L12.45 0.1 14.95 0.0 15.3 0.0 18.5 0.65 Q21.7 1.25 24.65 4.9 27.65 8.55 26.25 13.05 L24.45 14.6 Q22.05 15.25 18.3 17.25 12.8 20.25 8.3 20.25 L1.9 19.4 1.55 18.85 1.15 17.95 Q3.35 18.7 5.7 18.7 10.6 18.7 15.05 16.3 20.2 13.55 20.2 9.35 20.2 5.9 16.25 2.8 13.55 0.7 11.3 0.25" fill="#3ad3e5" fill-rule="evenodd" stroke="none"/>
      <path d="M1.9 19.4 L8.3 20.25 Q12.8 20.25 18.3 17.25 22.05 15.25 24.45 14.6 L20.5 17.7 Q17.55 19.85 15.3 20.85 11.85 22.3 9.15 22.6 4.25 23.05 1.9 19.4" fill="#adfccd" fill-rule="evenodd" stroke="none"/>
      <path d="M11.3 0.25 Q13.55 0.7 16.25 2.8 20.2 5.9 20.2 9.35 20.2 13.55 15.05 16.3 10.6 18.7 5.7 18.7 3.35 18.7 1.15 17.95 0.45 16.2 0.1 13.8 -1.05 1.7 11.3 0.25 M13.45 6.05 L13.25 5.75 13.4 6.15 Q11.2 2.8 8.9 2.8 6.65 2.8 4.75 4.8 2.75 6.8 2.75 9.0 2.75 11.2 4.55 13.4 6.3 15.65 8.55 15.6 10.8 15.5 12.25 14.3 14.25 12.7 14.25 9.35 L14.0 7.85 13.6 6.25 13.45 6.05" fill="#2c4c61" fill-rule="evenodd" stroke="none"/>
      <path d="M13.45 6.05 L13.6 6.25 14.0 7.85 14.25 9.35 Q14.25 12.7 12.25 14.3 10.8 15.5 8.55 15.6 6.3 15.65 4.55 13.4 2.75 11.2 2.75 9.0 2.75 6.8 4.75 4.8 6.65 2.8 8.9 2.8 11.2 2.8 13.4 6.15 L13.25 5.75 13.45 6.05 M3.55 7.25 Q3.55 7.9 4.0 8.75 4.65 9.85 5.65 9.85 6.5 9.85 7.0 9.1 7.55 8.4 7.55 7.15 L7.45 6.6 Q7.25 5.55 6.1 5.05 5.0 4.5 4.25 5.4 3.55 6.25 3.55 7.25" fill="#252944" fill-rule="evenodd" stroke="none"/>
      <path d="M3.55 7.25 Q3.55 6.25 4.25 5.4 5.0 4.5 6.1 5.05 7.25 5.55 7.45 6.6 L7.55 7.15 Q7.55 8.4 7.0 9.1 6.5 9.85 5.65 9.85 4.65 9.85 4.0 8.75 3.55 7.9 3.55 7.25" fill="#efbccf" fill-rule="evenodd" stroke="none"/>
      <path d="M1.15 17.95 L1.55 18.85 1.9 19.4 Q4.25 23.05 9.15 22.6 11.85 22.3 15.3 20.85 17.55 19.85 20.5 17.7 L24.45 14.6 26.25 13.05 26.95 12.4 M11.3 0.25 Q-1.05 1.7 0.1 13.8 0.45 16.2 1.15 17.95" fill="none" stroke="#230930" stroke-linecap="round" stroke-linejoin="round" stroke-width="2.5"/>
    </g>
  </defs>
</svg>
