<?xml version="1.0" encoding="UTF-8" standalone="no"?>
<svg xmlns:ffdec="https://www.free-decompiler.com/flash" xmlns:xlink="http://www.w3.org/1999/xlink" ffdec:objectType="frame" height="129.45px" width="105.05px" xmlns="http://www.w3.org/2000/svg">
  <g transform="matrix(1.0, 0.0, 0.0, 1.0, 7.2, 10.75)">
    <use ffdec:characterId="14" height="80.2" transform="matrix(1.0, 0.0, 0.0, 1.0, -3.55, 36.7)" width="46.95" xlink:href="#shape0"/>
    <use ffdec:characterId="2" height="25.15" transform="matrix(0.9809, -0.1865, 0.1865, 0.9809, 65.8407, 62.8069)" width="26.75" xlink:href="#shape1"/>
    <use ffdec:characterId="3" height="83.15" transform="matrix(0.9991, -0.0349, 0.0349, 0.9991, -1.6425, 6.5448)" width="93.55" xlink:href="#shape2"/>
    <use ffdec:characterId="4" height="19.35" transform="matrix(0.9991, -0.0349, 0.0349, 0.9991, 82.2121, 36.0734)" width="9.25" xlink:href="#shape3"/>
    <use ffdec:characterId="5" height="45.15" transform="matrix(0.9991, -0.0349, 0.0349, 0.9991, 13.2962, 23.2775)" width="46.7" xlink:href="#shape4"/>
    <use ffdec:characterId="6" height="45.15" transform="matrix(0.9991, -0.0349, 0.0349, 0.9991, 13.2962, 23.2775)" width="46.7" xlink:href="#shape5"/>
    <use ffdec:characterId="7" height="24.9" transform="matrix(0.9975, 0.0611, -0.0611, 0.9975, 9.6142, 61.7262)" width="29.45" xlink:href="#shape6"/>
  </g>
  <defs>
    <g id="shape0" transform="matrix(1.0, 0.0, 0.0, 1.0, 3.55, 1.25)">
      <path d="M-2.25 41.1 L-2.25 40.1 -1.9 35.9 Q-0.7 25.55 4.2 15.85 6.95 10.3 10.8 5.05 L12.55 2.8 13.45 1.75 14.6 0.0 Q22.4 20.9 34.95 37.95 26.95 37.3 28.8 39.0 L31.7 38.7 28.85 39.05 26.35 39.1 Q24.65 40.6 22.7 41.65 L21.9 42.0 Q19.85 42.95 17.7 43.35 L13.05 43.5 Q11.75 43.75 10.9 44.5 L9.9 42.9 7.9 40.75 Q6.45 39.5 4.8 39.4 2.7 39.25 -0.1 40.25 L-1.3 40.7 -2.25 41.1" fill="#3ad3e5" fill-rule="evenodd" stroke="none"/>
      <path d="M-2.25 41.1 L-1.3 40.7 -0.1 40.25 Q2.7 39.25 4.8 39.4 6.45 39.5 7.9 40.75 L9.9 42.9 10.9 44.5 Q9.75 45.55 9.65 47.65 L9.65 47.9 9.6 48.0 9.6 48.15 9.55 48.95 9.55 49.25 9.55 49.3 Q8.15 48.45 6.4 48.35 4.45 48.25 1.55 49.8 -0.3 50.85 -1.4 52.1 -2.2 47.25 -2.2 41.4 L-2.25 42.25 -2.25 41.1" fill="#26596c" fill-rule="evenodd" stroke="none"/>
      <path d="M-1.4 52.1 Q-0.3 50.85 1.55 49.8 4.45 48.25 6.4 48.35 8.15 48.45 9.55 49.3 9.5 50.65 9.6 51.8 L7.6 51.65 Q4.6 51.45 1.5 53.1 0.15 53.7 -0.9 54.6 L-1.4 52.1" fill="#2b3b52" fill-rule="evenodd" stroke="none"/>
      <path d="M13.45 58.15 Q16.0 60.35 20.1 61.65 L20.05 64.55 Q20.0 70.2 18.65 71.75 L17.1 73.45 16.55 73.7 15.95 73.7 Q14.75 73.5 12.75 72.25 L12.45 72.1 9.8 71.4 Q7.2 70.7 5.85 68.5 L3.65 65.2 2.7 63.75 Q3.65 60.5 6.6 58.15 8.5 56.6 10.65 55.8 11.55 57.25 13.45 58.15 M7.25 64.85 Q7.85 65.5 8.65 65.55 9.55 65.6 10.2 65.0 10.8 64.45 10.85 63.6 10.9 62.7 10.35 62.05 9.8 61.4 8.9 61.35 8.1 61.3 7.4 61.9 6.75 62.45 6.7 63.35 6.65 64.2 7.25 64.85" fill="#17003c" fill-rule="evenodd" stroke="none"/>
      <path d="M9.6 51.8 Q9.8 54.0 10.65 55.8 8.5 56.6 6.6 58.15 3.65 60.5 2.7 63.75 1.2 61.3 0.2 58.3 L-0.9 54.6 Q0.15 53.7 1.5 53.1 4.6 51.45 7.6 51.65 L9.6 51.8" fill="#220154" fill-rule="evenodd" stroke="none"/>
      <path d="M9.25 61.65 L8.3 61.8 Q7.5 62.15 7.45 63.05 7.45 64.75 8.75 64.8 10.35 64.9 10.45 63.3 L10.3 62.7 10.15 62.25 Q9.9 61.7 9.25 61.65 M7.25 64.85 Q6.65 64.2 6.7 63.35 6.75 62.45 7.4 61.9 8.1 61.3 8.9 61.35 9.8 61.4 10.35 62.05 10.9 62.7 10.85 63.6 10.8 64.45 10.2 65.0 9.55 65.6 8.65 65.55 7.85 65.5 7.25 64.85" fill="#efbccf" fill-rule="evenodd" stroke="none"/>
      <path d="M9.25 61.65 Q9.9 61.7 10.15 62.25 L10.3 62.7 10.45 63.3 Q10.35 64.9 8.75 64.8 7.45 64.75 7.45 63.05 7.5 62.15 8.3 61.8 L9.25 61.65" fill="#ebd7d6" fill-rule="evenodd" stroke="none"/>
      <path d="M-2.25 41.1 L-2.25 40.1 -1.9 35.9 Q-0.7 25.55 4.2 15.85 6.95 10.3 10.8 5.05 L12.55 2.8 13.45 1.75 14.6 0.0 M28.8 39.0 L31.7 38.7 34.5 38.3 M10.9 44.5 Q11.75 43.75 13.05 43.5 L17.7 43.35 Q19.85 42.95 21.9 42.0 L22.7 41.65 Q24.65 40.6 26.35 39.1 L28.85 39.05 31.7 38.7 M9.65 47.9 L9.6 48.15 9.55 48.95 9.55 49.25 9.55 49.3 Q9.65 54.75 13.45 58.15 16.0 60.35 20.1 61.65 23.25 62.6 27.35 63.05 M9.65 47.9 L9.6 48.0 9.6 48.15 M10.9 44.5 Q9.75 45.55 9.65 47.65 L9.65 47.9 M9.55 49.3 Q9.5 50.65 9.6 51.8 9.8 54.0 10.65 55.8 11.55 57.25 13.45 58.15 M15.95 73.7 L16.55 73.7 M-1.4 52.1 Q-2.2 47.25 -2.2 41.4 L-2.25 42.25 -2.25 41.1 M-0.9 54.6 L-1.4 52.1 M-0.9 54.6 Q2.1 73.2 15.95 73.7" fill="none" stroke="#230930" stroke-linecap="round" stroke-linejoin="round" stroke-width="2.5"/>
      <path d="M35.2 56.5 Q35.95 58.0 35.4 59.65 34.9 61.25 33.45 62.05 L30.3 62.3 Q28.7 61.8 27.9 60.25 27.05 58.75 27.55 57.15 28.1 55.5 29.65 54.7 L32.8 54.45 Q34.45 54.95 35.2 56.5 M34.55 58.55 Q34.85 57.65 34.15 56.25 L33.15 55.6 30.9 55.7 Q29.65 56.25 29.25 57.5 28.95 58.45 29.35 59.2 29.7 59.9 30.75 60.25 L33.0 60.15 Q34.2 59.65 34.55 58.55 M22.8 59.6 Q23.85 59.9 24.45 60.95 25.0 61.95 24.6 63.1 24.3 64.15 23.3 64.65 L21.1 64.85 Q20.0 64.5 19.55 63.45 19.05 62.45 19.35 61.4 19.75 60.25 20.7 59.75 L22.8 59.6 M22.8 60.15 L21.25 60.35 Q20.55 60.8 20.2 61.9 20.05 62.4 20.3 62.9 20.65 63.6 21.35 63.8 22.2 63.95 22.95 63.3 L23.75 62.25 Q23.75 61.5 23.35 60.9 L22.8 60.15 M21.05 73.55 Q20.45 72.6 20.8 71.55 21.15 70.5 22.15 70.05 L24.1 69.85 Q25.15 70.2 25.65 71.2 26.15 72.1 25.8 73.15 25.45 74.2 24.55 74.7 L22.5 74.85 Q21.5 74.55 21.05 73.55 M21.1 71.95 Q20.65 73.45 22.2 73.95 22.95 74.15 23.55 73.95 24.45 73.7 24.8 72.7 L24.8 72.65 24.7 71.65 24.55 71.3 Q24.25 70.7 23.5 70.45 23.15 70.3 22.35 70.7 21.35 71.15 21.1 71.95 M30.1 73.1 Q29.35 72.3 29.6 71.2 29.9 70.0 31.0 69.15 32.05 68.4 33.3 68.45 34.55 68.5 35.35 69.3 36.0 70.2 35.7 71.3 35.55 72.5 34.45 73.25 33.35 74.05 32.0 74.05 30.75 74.0 30.1 73.1 M34.65 70.05 Q34.15 69.25 33.55 69.05 33.0 68.85 32.35 69.3 31.55 69.75 31.2 70.9 31.05 71.4 31.2 72.1 31.45 72.75 31.85 72.9 L33.4 72.55 34.3 71.95 34.8 71.3 34.85 71.2 34.85 70.9 34.85 70.85 34.85 70.6 34.65 70.05" fill="#efbccf" fill-rule="evenodd" stroke="none"/>
      <path d="M31.9 49.7 Q36.65 50.75 40.15 56.15 44.95 65.2 38.15 73.15 L35.35 75.05 Q25.35 80.85 14.0 73.9 12.75 73.55 13.75 71.65 L16.1 65.75 17.15 62.05 17.85 62.55 Q18.6 63.95 19.6 64.75 L19.1 62.95 Q18.45 60.05 18.95 58.5 20.45 53.9 25.4 51.25 28.85 49.5 31.9 49.7 M35.2 56.5 Q34.45 54.95 32.8 54.45 L29.65 54.7 Q28.1 55.5 27.55 57.15 27.05 58.75 27.9 60.25 28.7 61.8 30.3 62.3 L33.45 62.05 Q34.9 61.25 35.4 59.65 35.95 58.0 35.2 56.5 M22.8 59.6 L20.7 59.75 Q19.75 60.25 19.35 61.4 19.05 62.45 19.55 63.45 20.0 64.5 21.1 64.85 L23.3 64.65 Q24.3 64.15 24.6 63.1 25.0 61.95 24.45 60.95 23.85 59.9 22.8 59.6 M21.05 73.55 Q21.5 74.55 22.5 74.85 L24.55 74.7 Q25.45 74.2 25.8 73.15 26.15 72.1 25.65 71.2 25.15 70.2 24.1 69.85 L22.15 70.05 Q21.15 70.5 20.8 71.55 20.45 72.6 21.05 73.55 M30.1 73.1 Q30.75 74.0 32.0 74.05 33.35 74.05 34.45 73.25 35.55 72.5 35.7 71.3 36.0 70.2 35.35 69.3 34.55 68.5 33.3 68.45 32.05 68.4 31.0 69.15 29.9 70.0 29.6 71.2 29.35 72.3 30.1 73.1" fill="#130029" fill-rule="evenodd" stroke="none"/>
      <path d="M34.55 58.55 Q34.2 59.65 33.0 60.15 L30.75 60.25 Q29.7 59.9 29.35 59.2 28.95 58.45 29.25 57.5 29.65 56.25 30.9 55.7 L33.15 55.6 34.15 56.25 Q34.85 57.65 34.55 58.55 M22.8 60.15 L23.35 60.9 Q23.75 61.5 23.75 62.25 L22.95 63.3 Q22.2 63.95 21.35 63.8 20.65 63.6 20.3 62.9 20.05 62.4 20.2 61.9 20.55 60.8 21.25 60.35 L22.8 60.15 M21.1 71.95 Q21.35 71.15 22.35 70.7 23.15 70.3 23.5 70.45 24.25 70.7 24.55 71.3 L24.7 71.65 24.8 72.65 24.8 72.7 Q24.45 73.7 23.55 73.95 22.95 74.15 22.2 73.95 20.65 73.45 21.1 71.95 M34.65 70.05 L34.85 70.6 34.85 70.85 34.85 70.9 34.85 71.2 34.8 71.3 34.3 71.95 33.4 72.55 31.85 72.9 Q31.45 72.75 31.2 72.1 31.05 71.4 31.2 70.9 31.55 69.75 32.35 69.3 33.0 68.85 33.55 69.05 34.15 69.25 34.65 70.05" fill="#ebd7d6" fill-rule="evenodd" stroke="none"/>
      <path d="M31.9 49.7 Q28.85 49.5 25.4 51.25 20.45 53.9 18.95 58.5 18.45 60.05 19.1 62.95 L19.6 64.75 Q18.6 63.95 17.85 62.55 L17.7 62.3 17.3 61.05 Q18.3 61.05 17.85 60.9 L17.25 60.75 17.15 60.25 Q16.4 55.65 21.2 51.9 L21.4 51.75 Q27.25 48.65 31.9 49.7" fill="#2a2446" fill-rule="evenodd" stroke="none"/>
      <path d="M14.0 73.9 Q25.35 80.85 35.35 75.05 L38.15 73.15 Q44.95 65.2 40.15 56.15 36.65 50.75 31.9 49.7 27.25 48.65 21.4 51.75 L21.2 51.9 Q16.4 55.65 17.15 60.25 L17.25 60.75 17.3 61.05 17.7 62.3 17.85 62.55" fill="none" stroke="#230930" stroke-linecap="round" stroke-linejoin="round" stroke-width="2.5"/>
    </g>
    <g id="shape1" transform="matrix(1.0, 0.0, 0.0, 1.0, 1.25, 1.25)">
      <path d="M24.15 14.3 L22.4 14.1 Q20.6 13.55 20.45 9.9 20.6 8.85 21.4 8.3 L21.5 8.45 Q23.1 10.9 23.8 12.8 L24.15 14.25 24.15 14.3" fill="#efbccf" fill-rule="evenodd" stroke="none"/>
      <path d="M21.4 8.3 Q20.6 8.85 20.45 9.9 20.6 13.55 22.4 14.1 L24.15 14.3 24.25 15.2 Q24.25 17.25 23.0 18.85 20.9 18.75 19.35 16.05 17.75 13.3 17.75 9.5 17.75 6.55 17.9 6.25 18.1 5.75 19.25 5.25 L20.0 6.3 21.4 8.3" fill="#252944" fill-rule="evenodd" stroke="none"/>
      <path d="M19.25 5.25 Q18.1 5.75 17.9 6.25 17.75 6.55 17.75 9.5 17.75 13.3 19.35 16.05 20.9 18.75 23.0 18.85 L21.5 20.25 20.8 20.75 19.9 21.25 18.3 21.9 17.65 21.2 17.1 20.25 16.55 19.25 Q15.0 15.6 15.0 9.9 15.0 6.05 15.9 4.35 16.35 3.5 17.15 3.05 L18.65 4.55 19.25 5.25" fill="#2c4c61" fill-rule="evenodd" stroke="none"/>
      <path d="M5.6 1.35 Q6.35 0.85 7.2 0.55 L12.5 0.25 Q13.5 0.55 14.35 1.05 L15.85 2.0 17.15 3.05 Q16.35 3.5 15.9 4.35 15.0 6.05 15.0 9.9 15.0 15.6 16.55 19.25 L17.1 20.25 17.65 21.2 Q10.35 20.75 6.65 17.65 2.7 14.3 2.7 7.55 2.7 6.4 4.45 3.2 L5.6 1.35" fill="#3ad3e5" fill-rule="evenodd" stroke="none"/>
      <path d="M18.3 21.9 Q16.0 22.65 13.1 22.65 7.5 22.65 3.8 19.3 0.0 15.9 0.0 10.65 0.0 7.6 2.15 4.55 L2.5 4.1 Q3.85 2.4 5.6 1.35 L4.45 3.2 Q2.7 6.4 2.7 7.55 2.7 14.3 6.65 17.65 10.35 20.75 17.65 21.2 L18.3 21.9" fill="#adfccd" fill-rule="evenodd" stroke="none"/>
      <path d="M21.4 8.3 L20.0 6.3 19.25 5.25 18.65 4.55 17.15 3.05 15.85 2.0 14.35 1.05 Q13.5 0.55 12.5 0.25 L7.2 0.55 Q6.35 0.85 5.6 1.35 3.85 2.4 2.5 4.1 L2.15 4.55 Q0.0 7.6 0.0 10.65 0.0 15.9 3.8 19.3 7.5 22.65 13.1 22.65 16.0 22.65 18.3 21.9 L19.9 21.25 20.8 20.75 21.5 20.25 23.0 18.85 Q24.25 17.25 24.25 15.2 L24.15 14.3 24.15 14.25 23.8 12.8 Q23.1 10.9 21.5 8.45 L21.4 8.3 Z" fill="none" stroke="#230930" stroke-linecap="round" stroke-linejoin="round" stroke-width="2.5"/>
    </g>
    <g id="shape2" transform="matrix(1.0, 0.0, 0.0, 1.0, 1.25, 1.25)">
      <path d="M88.45 28.7 Q90.1 32.75 90.7 37.1 92.1 47.0 88.25 58.45 L85.9 63.2 Q83.4 65.55 80.15 67.6 73.3 72.0 68.65 72.0 55.05 72.0 45.65 62.85 36.9 54.5 36.9 44.2 36.9 33.35 44.05 25.95 51.4 18.4 62.7 18.4 78.85 18.4 88.45 28.7" fill="#67e9b9" fill-rule="evenodd" stroke="none"/>
      <path d="M85.9 63.2 L85.5 63.9 85.4 64.1 83.8 66.55 Q80.45 71.25 76.2 74.4 73.9 76.1 71.25 77.35 68.1 78.85 64.5 79.7 L61.7 79.9 Q48.95 79.9 39.65 72.2 L35.7 68.4 Q31.35 63.65 28.9 57.8 26.6 52.2 26.6 47.2 26.6 41.85 29.85 37.1 L30.55 36.15 33.3 32.95 Q34.5 31.45 34.5 30.7 34.5 29.6 33.6 28.35 L31.55 25.8 Q28.55 21.95 20.4 17.3 12.25 12.6 19.3 11.45 26.4 10.25 33.9 10.2 L52.6 11.6 Q65.65 13.35 75.5 15.35 71.4 10.85 66.6 7.75 L61.8 4.6 Q60.9 3.85 60.9 2.95 L61.3 2.35 61.45 2.2 Q66.7 4.95 70.95 8.0 78.95 13.7 83.8 20.3 L85.35 22.6 Q87.2 25.55 88.45 28.7 78.85 18.4 62.7 18.4 51.4 18.4 44.05 25.95 36.9 33.35 36.9 44.2 36.9 54.5 45.65 62.85 55.05 72.0 68.65 72.0 73.3 72.0 80.15 67.6 83.4 65.55 85.9 63.2" fill="#5dd7c8" fill-rule="evenodd" stroke="none"/>
      <path d="M64.5 79.7 Q58.15 81.1 50.45 80.4 L49.7 80.3 49.05 80.25 44.15 79.15 Q40.2 78.15 37.2 75.9 L32.85 72.2 32.55 71.8 29.5 69.2 Q14.1 56.6 12.9 32.4 L11.85 33.05 Q13.2 30.25 13.2 29.45 L13.15 29.05 Q12.95 27.6 11.75 26.25 L3.1 17.95 1.8 16.6 1.45 16.25 Q-2.25 12.6 3.5 10.7 4.9 10.25 6.85 9.9 L9.35 9.55 9.5 9.5 Q40.1 2.2 57.8 6.8 52.0 -2.15 58.55 0.7 L61.45 2.2 61.3 2.35 60.9 2.95 Q60.9 3.85 61.8 4.6 L66.6 7.75 Q71.4 10.85 75.5 15.35 65.65 13.35 52.6 11.6 L33.9 10.2 Q26.4 10.25 19.3 11.45 12.25 12.6 20.4 17.3 28.55 21.95 31.55 25.8 L33.6 28.35 Q34.5 29.6 34.5 30.7 34.5 31.45 33.3 32.95 L30.55 36.15 29.85 37.1 Q26.6 41.85 26.6 47.2 26.6 52.2 28.9 57.8 31.35 63.65 35.7 68.4 L39.65 72.2 Q48.95 79.9 61.7 79.9 L64.5 79.7 M69.05 11.8 Q64.3 8.4 57.8 6.8 64.3 8.4 69.05 11.8" fill="#3ad3e5" fill-rule="evenodd" stroke="none"/>
      <path d="M88.45 28.7 Q90.1 32.75 90.7 37.1 92.1 47.0 88.25 58.45 L85.9 63.2 85.5 63.9 85.4 64.1 83.8 66.55 Q80.45 71.25 76.2 74.4 73.9 76.1 71.25 77.35 68.1 78.85 64.5 79.7 58.15 81.1 50.45 80.4 L49.7 80.3 49.05 80.25 44.15 79.15 Q40.2 78.15 37.2 75.9 L32.85 72.2 32.55 71.8 29.5 69.2 M11.85 33.05 Q13.2 30.25 13.2 29.45 L13.15 29.05 Q12.95 27.6 11.75 26.25 L3.1 17.95 1.8 16.6 1.45 16.25 Q-2.25 12.6 3.5 10.7 4.9 10.25 6.85 9.9 L9.35 9.55 9.5 9.5 Q40.1 2.2 57.8 6.8 52.0 -2.15 58.55 0.7 L61.45 2.2 Q66.7 4.95 70.95 8.0 78.95 13.7 83.8 20.3 L85.35 22.6 Q87.2 25.55 88.45 28.7" fill="none" stroke="#230930" stroke-linecap="round" stroke-linejoin="round" stroke-width="2.5"/>
      <path d="M57.8 6.8 Q64.3 8.4 69.05 11.8" fill="none" stroke="#265573" stroke-linecap="round" stroke-linejoin="round" stroke-width="1.0"/>
      <path d="M77.4 65.3 Q76.95 63.95 76.1 63.5 75.25 63.0 74.5 63.15 73.75 63.35 71.6 64.65 L70.45 65.3 Q68.95 65.95 67.55 65.95 L66.1 65.65 64.75 65.1" fill="none" stroke="#265573" stroke-linecap="round" stroke-linejoin="round" stroke-width="1.0"/>
      <path d="M73.35 24.6 Q75.25 25.75 77.9 28.95 79.3 31.7 79.55 35.05 80.05 40.35 77.45 44.8 74.55 49.85 69.6 49.85 65.7 49.85 61.9 44.8 58.45 40.25 58.1 36.25 57.55 30.2 61.7 26.25 64.85 23.25 67.2 23.25 71.1 23.25 73.35 24.6 M74.15 28.3 L74.0 28.05 72.55 26.6 Q71.85 26.25 71.0 26.25 69.35 26.25 68.85 27.25 68.4 28.05 68.6 30.0 69.0 34.3 72.5 34.3 73.8 34.3 74.35 32.75 74.75 31.7 74.65 30.5 L74.15 28.3" fill="#adfccd" fill-rule="evenodd" stroke="none"/>
      <path d="M74.15 28.3 L74.65 30.5 Q74.75 31.7 74.35 32.75 73.8 34.3 72.5 34.3 69.0 34.3 68.6 30.0 68.4 28.05 68.85 27.25 69.35 26.25 71.0 26.25 71.85 26.25 72.55 26.6 L74.0 28.05 74.15 28.3" fill="#d5ffe6" fill-rule="evenodd" stroke="none"/>
      <path d="M78.2 30.65 Q78.75 28.85 79.45 27.75 81.05 25.15 83.75 25.15 85.3 25.15 87.2 26.95 88.4 29.35 89.2 31.85 86.8 29.9 84.3 29.9 80.7 29.9 79.4 33.8 78.95 35.15 78.35 39.0 78.0 35.25 78.2 30.65" fill="#5b2a42" fill-rule="evenodd" stroke="none"/>
      <path d="M87.2 26.95 Q85.3 25.15 83.75 25.15 81.05 25.15 79.45 27.75 78.75 28.85 78.2 30.65 78.55 24.1 79.85 15.85 84.5 21.25 87.2 26.95" fill="#40223e" fill-rule="evenodd" stroke="none"/>
      <path d="M78.35 39.0 Q78.95 35.15 79.4 33.8 80.7 29.9 84.3 29.9 86.8 29.9 89.2 31.85 92.35 41.45 90.1 51.8 87.0 54.9 82.8 51.7 79.15 47.75 78.35 39.0" fill="#81425d" fill-rule="evenodd" stroke="none"/>
      <path d="M78.2 30.65 Q78.0 35.25 78.35 39.0 79.15 47.75 82.8 51.7 87.0 54.9 90.1 51.8 92.35 41.45 89.2 31.85 88.4 29.35 87.2 26.95 84.5 21.25 79.85 15.85 78.55 24.1 78.2 30.65 Z" fill="none" stroke="#265573" stroke-linecap="round" stroke-linejoin="round" stroke-width="1.0"/>
    </g>
    <g id="shape3" transform="matrix(1.0, 0.0, 0.0, 1.0, -81.55, -31.2)">
      <path d="M84.1 35.45 Q83.65 36.4 83.65 37.75 83.65 39.1 84.1 40.0 84.5 40.95 85.1 40.95 85.65 40.95 86.1 40.0 86.5 39.1 86.5 37.75 86.5 36.4 86.1 35.45 85.65 34.5 85.1 34.5 84.5 34.5 84.1 35.45 M82.5 34.0 Q83.65 31.2 85.5 31.2 87.4 31.2 88.95 34.0 90.45 36.85 90.75 40.85 91.05 44.9 89.9 47.7 88.75 50.55 86.9 50.55 85.05 50.55 83.45 47.7 81.9 44.9 81.6 40.85 81.35 36.85 82.5 34.0" fill="#180823" fill-rule="evenodd" stroke="none"/>
      <path d="M84.1 35.45 Q84.5 34.5 85.1 34.5 85.65 34.5 86.1 35.45 86.5 36.4 86.5 37.75 86.5 39.1 86.1 40.0 85.65 40.95 85.1 40.95 84.5 40.95 84.1 40.0 83.65 39.1 83.65 37.75 83.65 36.4 84.1 35.45" fill="#ffffff" fill-rule="evenodd" stroke="none"/>
    </g>
    <g id="shape4" transform="matrix(1.0, 0.0, 0.0, 1.0, -13.1, -16.0)">
      <path d="M28.3 16.55 Q43.95 16.05 51.6 22.75 53.55 24.6 54.9 26.9 L56.9 30.6 Q57.95 32.9 58.55 35.25 59.1 37.75 59.25 40.4 L59.3 41.05 Q59.3 43.85 58.6 46.45 L58.2 47.7 57.3 49.9 56.0 52.1 53.75 54.7 53.35 55.05 51.35 56.6 50.15 57.4 Q45.4 60.3 40.65 60.6 37.45 60.8 34.45 59.8 32.0 59.05 29.8 57.7 27.15 56.1 25.2 53.6 23.3 51.15 21.75 48.45 L19.95 45.15 Q18.75 42.65 17.8 39.8 21.35 39.35 24.6 35.85 29.35 30.75 29.35 21.8 29.35 19.4 28.3 16.55" fill="#81425d" fill-rule="evenodd" stroke="none"/>
      <path d="M14.85 28.15 Q14.1 23.45 13.6 18.15 L22.95 16.85 23.4 20.2 Q23.4 24.75 21.4 26.75 19.85 28.35 16.85 28.35 L14.85 28.15" fill="#40223e" fill-rule="evenodd" stroke="none"/>
      <path d="M17.8 39.8 Q16.05 34.5 14.85 28.15 L16.85 28.35 Q19.85 28.35 21.4 26.75 23.4 24.75 23.4 20.2 L22.95 16.85 28.3 16.55 Q29.35 19.4 29.35 21.8 29.35 30.75 24.6 35.85 21.35 39.35 17.8 39.8" fill="#5b2a42" fill-rule="evenodd" stroke="none"/>
      <path d="M28.3 16.55 Q43.95 16.05 51.6 22.75 53.55 24.6 54.9 26.9 L56.9 30.6 Q57.95 32.9 58.55 35.25 59.1 37.75 59.25 40.4 L59.3 41.05 Q59.3 43.85 58.6 46.45 L58.2 47.7 57.3 49.9 56.0 52.1 53.75 54.7 53.35 55.05 51.35 56.6 50.15 57.4 Q45.4 60.3 40.65 60.6 37.45 60.8 34.45 59.8 32.0 59.05 29.8 57.7 27.15 56.1 25.2 53.6 23.3 51.15 21.75 48.45 L19.95 45.15 Q18.75 42.65 17.8 39.8 16.05 34.5 14.85 28.15 14.1 23.45 13.6 18.15 L22.95 16.85 28.3 16.55 Z" fill="none" stroke="#411d33" stroke-linecap="round" stroke-linejoin="round" stroke-width="1.0"/>
    </g>
    <g id="shape5" transform="matrix(1.0, 0.0, 0.0, 1.0, -13.1, -16.0)">
      <path d="M28.3 16.55 Q43.95 16.05 51.6 22.75 53.55 24.6 54.9 26.9 L56.9 30.6 Q57.95 32.9 58.55 35.25 59.1 37.75 59.25 40.4 L59.3 41.05 Q59.3 43.85 58.6 46.45 L58.2 47.7 57.3 49.9 56.0 52.1 53.75 54.7 53.35 55.05 51.35 56.6 50.15 57.4 Q45.4 60.3 40.65 60.6 37.45 60.8 34.45 59.8 32.0 59.05 29.8 57.7 27.15 56.1 25.2 53.6 23.3 51.15 21.75 48.45 L19.95 45.15 Q18.75 42.65 17.8 39.8 21.35 39.35 24.6 35.85 29.35 30.75 29.35 21.8 29.35 19.4 28.3 16.55 M44.5 32.4 Q41.35 28.8 37.2 28.8 33.1 28.8 30.45 32.4 27.75 35.95 28.1 41.05 28.4 46.1 31.55 49.7 34.7 53.25 38.8 53.25 42.95 53.25 45.6 49.7 48.25 46.1 47.95 41.05 47.55 35.95 44.5 32.4" fill="#81425d" fill-rule="evenodd" stroke="none"/>
      <path d="M44.5 32.4 Q47.55 35.95 47.95 41.05 48.25 46.1 45.6 49.7 42.95 53.25 38.8 53.25 34.7 53.25 31.55 49.7 28.4 46.1 28.1 41.05 27.75 35.95 30.45 32.4 33.1 28.8 37.2 28.8 41.35 28.8 44.5 32.4 M31.7 33.3 Q30.6 34.7 30.45 36.6 30.3 38.6 31.2 39.95 32.0 41.35 33.35 41.35 34.7 41.35 35.75 39.95 36.75 38.6 36.9 36.6 37.0 34.7 36.25 33.3 35.45 31.95 34.1 31.95 32.75 31.95 31.7 33.3" fill="#180823" fill-rule="evenodd" stroke="none"/>
      <path d="M14.85 28.15 Q14.1 23.45 13.6 18.15 L22.95 16.85 23.4 20.2 Q23.4 24.75 21.4 26.75 19.85 28.35 16.85 28.35 L14.85 28.15" fill="#40223e" fill-rule="evenodd" stroke="none"/>
      <path d="M17.8 39.8 Q16.05 34.5 14.85 28.15 L16.85 28.35 Q19.85 28.35 21.4 26.75 23.4 24.75 23.4 20.2 L22.95 16.85 28.3 16.55 Q29.35 19.4 29.35 21.8 29.35 30.75 24.6 35.85 21.35 39.35 17.8 39.8" fill="#5b2a42" fill-rule="evenodd" stroke="none"/>
      <path d="M31.7 33.3 Q32.75 31.95 34.1 31.95 35.45 31.95 36.25 33.3 37.0 34.7 36.9 36.6 36.75 38.6 35.75 39.95 34.7 41.35 33.35 41.35 32.0 41.35 31.2 39.95 30.3 38.6 30.45 36.6 30.6 34.7 31.7 33.3" fill="#ffffff" fill-rule="evenodd" stroke="none"/>
      <path d="M28.3 16.55 Q43.95 16.05 51.6 22.75 53.55 24.6 54.9 26.9 L56.9 30.6 Q57.95 32.9 58.55 35.25 59.1 37.75 59.25 40.4 L59.3 41.05 Q59.3 43.85 58.6 46.45 L58.2 47.7 57.3 49.9 56.0 52.1 53.75 54.7 53.35 55.05 51.35 56.6 50.15 57.4 Q45.4 60.3 40.65 60.6 37.45 60.8 34.45 59.8 32.0 59.05 29.8 57.7 27.15 56.1 25.2 53.6 23.3 51.15 21.75 48.45 L19.95 45.15 Q18.75 42.65 17.8 39.8 16.05 34.5 14.85 28.15 14.1 23.45 13.6 18.15 L22.95 16.85 28.3 16.55 Z" fill="none" stroke="#411d33" stroke-linecap="round" stroke-linejoin="round" stroke-width="1.0"/>
    </g>
    <g id="shape6" transform="matrix(1.0, 0.0, 0.0, 1.0, 1.25, 1.0)">
      <path d="M11.3 0.25 L12.45 0.1 14.95 0.0 15.3 0.0 18.5 0.65 Q21.7 1.25 24.65 4.9 27.65 8.55 26.25 13.05 L24.45 14.6 Q22.05 15.25 18.3 17.25 12.8 20.25 8.3 20.25 L1.9 19.4 1.55 18.85 1.15 17.95 Q3.35 18.7 5.7 18.7 10.6 18.7 15.05 16.3 20.2 13.55 20.2 9.35 20.2 5.9 16.25 2.8 13.55 0.7 11.3 0.25" fill="#3ad3e5" fill-rule="evenodd" stroke="none"/>
      <path d="M1.9 19.4 L8.3 20.25 Q12.8 20.25 18.3 17.25 22.05 15.25 24.45 14.6 L20.5 17.7 Q17.55 19.85 15.3 20.85 11.85 22.3 9.15 22.6 4.25 23.05 1.9 19.4" fill="#adfccd" fill-rule="evenodd" stroke="none"/>
      <path d="M11.3 0.25 Q13.55 0.7 16.25 2.8 20.2 5.9 20.2 9.35 20.2 13.55 15.05 16.3 10.6 18.7 5.7 18.7 3.35 18.7 1.15 17.95 0.45 16.2 0.1 13.8 -1.05 1.7 11.3 0.25 M13.45 6.05 L13.25 5.75 13.4 6.15 Q11.2 2.8 8.9 2.8 6.65 2.8 4.75 4.8 2.75 6.8 2.75 9.0 2.75 11.2 4.55 13.4 6.3 15.65 8.55 15.6 10.8 15.5 12.25 14.3 14.25 12.7 14.25 9.35 L14.0 7.85 13.6 6.25 13.45 6.05" fill="#2c4c61" fill-rule="evenodd" stroke="none"/>
      <path d="M13.45 6.05 L13.6 6.25 14.0 7.85 14.25 9.35 Q14.25 12.7 12.25 14.3 10.8 15.5 8.55 15.6 6.3 15.65 4.55 13.4 2.75 11.2 2.75 9.0 2.75 6.8 4.75 4.8 6.65 2.8 8.9 2.8 11.2 2.8 13.4 6.15 L13.25 5.75 13.45 6.05 M3.55 7.25 Q3.55 7.9 4.0 8.75 4.65 9.85 5.65 9.85 6.5 9.85 7.0 9.1 7.55 8.4 7.55 7.15 L7.45 6.6 Q7.25 5.55 6.1 5.05 5.0 4.5 4.25 5.4 3.55 6.25 3.55 7.25" fill="#252944" fill-rule="evenodd" stroke="none"/>
      <path d="M3.55 7.25 Q3.55 6.25 4.25 5.4 5.0 4.5 6.1 5.05 7.25 5.55 7.45 6.6 L7.55 7.15 Q7.55 8.4 7.0 9.1 6.5 9.85 5.65 9.85 4.65 9.85 4.0 8.75 3.55 7.9 3.55 7.25" fill="#efbccf" fill-rule="evenodd" stroke="none"/>
      <path d="M1.15 17.95 L1.55 18.85 1.9 19.4 Q4.25 23.05 9.15 22.6 11.85 22.3 15.3 20.85 17.55 19.85 20.5 17.7 L24.45 14.6 26.25 13.05 26.95 12.4 M11.3 0.25 Q-1.05 1.7 0.1 13.8 0.45 16.2 1.15 17.95" fill="none" stroke="#230930" stroke-linecap="round" stroke-linejoin="round" stroke-width="2.5"/>
    </g>
  </defs>
</svg>
