<?xml version="1.0" encoding="UTF-8" standalone="no"?>
<svg xmlns:ffdec="https://www.free-decompiler.com/flash" xmlns:xlink="http://www.w3.org/1999/xlink" ffdec:objectType="frame" height="174.85px" width="255.05px" xmlns="http://www.w3.org/2000/svg">
  <g transform="matrix(1.0, 0.0, 0.0, 1.0, 159.25, 30.25)">
    <use ffdec:characterId="1" height="19.7" transform="matrix(1.0191, 0.0, 0.0, 0.8898, -61.65, 125.35)" width="75.5" xlink:href="#shape0"/>
    <use ffdec:characterId="84" height="84.1" transform="matrix(-0.2263, -0.9741, 0.9741, -0.2263, -111.4678, 121.8547)" width="105.6" xlink:href="#shape1"/>
    <use ffdec:characterId="3" height="25.15" transform="matrix(0.9564, -0.2921, 0.2921, 0.9564, -68.0605, 22.9196)" width="26.75" xlink:href="#shape2"/>
    <use ffdec:characterId="37" height="83.15" transform="matrix(0.8029, -0.5961, 0.5961, 0.8029, -159.2488, 25.4914)" width="93.55" xlink:href="#shape3"/>
    <use ffdec:characterId="64" height="8.0" transform="matrix(0.8029, -0.5961, 0.5961, 0.8029, -66.8307, 34.4757)" width="10.3" xlink:href="#shape4"/>
    <use ffdec:characterId="39" height="26.6" transform="matrix(0.8029, -0.5961, 0.5961, 0.8029, -97.0303, 9.8167)" width="21.6" xlink:href="#shape5"/>
    <use ffdec:characterId="85" height="53.4" transform="matrix(0.8029, -0.5961, 0.5961, 0.8029, -142.3618, 24.1643)" width="78.45" xlink:href="#shape6"/>
    <use ffdec:characterId="8" height="24.9" transform="matrix(-0.2855, -0.9584, 0.9584, -0.2855, -92.7515, 82.5334)" width="29.45" xlink:href="#shape7"/>
  </g>
  <defs>
    <g id="shape0" transform="matrix(1.0, 0.0, 0.0, 1.0, 0.0, 0.0)">
      <path d="M75.5 9.85 Q75.5 13.95 64.45 16.8 53.3 19.7 37.75 19.7 22.1 19.7 11.0 16.8 0.0 13.95 0.0 9.85 0.0 5.75 11.0 2.85 22.1 0.0 37.75 0.0 53.3 0.0 64.45 2.85 75.5 5.75 75.5 9.85" fill="#000000" fill-opacity="0.29803923" fill-rule="evenodd" stroke="none"/>
    </g>
    <g id="shape1" transform="matrix(1.0, 0.0, 0.0, 1.0, 7.3, 10.8)">
      <path d="M20.9 31.1 L24.25 25.6 25.45 25.75 Q34.25 27.0 40.3 37.8 38.0 37.15 36.85 40.0 29.45 30.75 20.95 31.1 L20.9 31.1 M20.95 31.1 L25.45 25.75 20.95 31.1" fill="#26596c" fill-rule="evenodd" stroke="none"/>
      <path d="M18.55 35.4 L20.8 31.35 20.9 31.1 20.95 31.1 Q29.45 30.75 36.85 40.0 35.15 39.6 34.35 41.85 26.85 34.3 18.55 35.4 M20.95 31.1 L20.8 31.35 20.95 31.1" fill="#2b3b52" fill-rule="evenodd" stroke="none"/>
      <path d="M16.1 42.2 Q16.8 38.85 18.5 35.55 L18.55 35.4 Q26.85 34.3 34.35 41.85 32.35 42.55 30.7 44.55 23.45 40.15 16.1 42.2" fill="#220154" fill-rule="evenodd" stroke="none"/>
      <path d="M27.45 48.5 L19.35 58.0 Q16.3 56.35 15.8 52.95 14.8 47.5 16.1 42.2 23.45 40.15 30.7 44.55 L30.25 45.15 27.45 48.5 M24.4 44.7 Q23.7 44.2 22.85 44.3 21.9 44.5 21.4 45.25 21.0 45.95 21.15 46.8 21.35 47.7 22.05 48.15 22.85 48.7 23.6 48.45 24.4 48.3 24.95 47.6 25.5 46.85 25.25 46.05 25.05 45.15 24.4 44.7" fill="#17003c" fill-rule="evenodd" stroke="none"/>
      <path d="M25.45 25.75 Q44.2 4.15 69.45 -9.55 87.6 1.7 93.05 9.25 98.8 17.15 96.25 17.3 L93.85 19.9 Q81.75 32.3 67.15 33.05 L65.3 33.45 53.85 34.2 Q43.05 34.4 40.3 37.8 34.25 27.0 25.45 25.75 M67.15 33.05 Q84.85 28.7 93.85 19.9 84.85 28.7 67.15 33.05" fill="#3ad3e5" fill-rule="evenodd" stroke="none"/>
      <path d="M24.55 45.05 L23.6 44.7 Q22.7 44.6 22.25 45.4 21.35 46.8 22.45 47.5 23.8 48.45 24.65 47.1 L24.95 46.65 24.95 46.05 Q25.1 45.45 24.55 45.05 M24.4 44.7 Q25.05 45.15 25.25 46.05 25.5 46.85 24.95 47.6 24.4 48.3 23.6 48.45 22.85 48.7 22.05 48.15 21.35 47.7 21.15 46.8 21.0 45.95 21.4 45.25 21.9 44.5 22.85 44.3 23.7 44.2 24.4 44.7" fill="#efbccf" fill-rule="evenodd" stroke="none"/>
      <path d="M24.55 45.05 Q25.1 45.45 24.95 46.05 L24.95 46.65 24.65 47.1 Q23.8 48.45 22.45 47.5 21.35 46.8 22.25 45.4 22.7 44.6 23.6 44.7 L24.55 45.05" fill="#ebd7d6" fill-rule="evenodd" stroke="none"/>
      <path d="M25.45 25.75 Q44.2 4.15 69.45 -9.55 87.6 1.7 93.05 9.25 98.8 17.15 96.25 17.3 L93.85 19.9 Q84.85 28.7 67.15 33.05 L65.3 33.45 Q59.1 34.7 50.35 34.75 45.6 34.8 40.3 37.8 34.25 41.2 27.45 48.5 L19.35 58.0 Q16.3 56.35 15.8 52.95 14.8 47.5 16.1 42.2 16.8 38.85 18.5 35.55 L18.55 35.4 20.8 31.35 20.9 31.1 M20.8 31.35 L20.95 31.1 25.45 25.75" fill="none" stroke="#230930" stroke-linecap="round" stroke-linejoin="round" stroke-width="2.5"/>
      <path d="M4.6 48.3 Q4.2 47.3 4.75 46.3 5.4 45.35 6.4 45.1 7.45 44.9 8.35 45.35 9.4 45.9 9.5 46.9 9.85 47.95 9.25 48.85 8.8 49.85 7.75 50.2 6.8 50.45 5.65 49.9 4.8 49.4 4.6 48.3 M7.2 45.7 Q6.35 45.9 6.0 46.4 5.4 47.2 5.65 48.2 L5.65 48.25 6.4 48.95 6.6 49.2 7.9 49.35 Q8.25 49.4 8.8 48.5 9.3 47.6 9.1 46.9 8.8 45.25 7.2 45.7 M11.2 54.1 Q11.85 53.1 12.95 52.9 L15.1 53.05 Q16.0 53.8 16.35 54.75 16.7 55.95 16.1 56.85 15.45 57.85 14.3 58.2 13.25 58.5 12.2 57.9 11.25 57.35 11.1 56.2 10.75 55.15 11.2 54.1 M13.3 53.8 Q12.45 54.2 12.25 55.05 11.85 56.15 12.2 56.6 L13.2 57.35 Q13.9 57.75 14.05 57.6 14.95 57.45 15.25 56.7 15.6 55.85 15.35 54.85 15.15 54.25 14.75 54.05 14.05 53.55 13.3 53.8 M1.2 53.1 Q1.0 52.6 0.4 52.2 -0.1 51.8 -0.35 51.8 L-1.55 52.85 -1.95 53.9 -2.15 54.7 -2.05 54.75 -1.95 55.15 -1.75 55.45 Q-1.6 55.5 -1.2 55.7 -0.45 56.25 0.2 55.9 0.7 55.85 1.05 55.1 1.4 54.3 1.2 53.1 M6.55 59.95 Q8.25 59.5 9.75 60.4 11.2 61.25 11.65 62.8 11.95 64.4 11.2 66.05 10.25 67.4 8.7 67.95 7.1 68.4 5.5 67.6 3.9 66.65 3.7 64.95 3.3 63.3 4.05 61.85 4.85 60.4 6.55 59.95 M0.95 50.75 Q1.95 50.95 2.4 52.05 2.7 53.15 2.3 54.5 2.0 55.75 0.8 56.45 L-1.55 56.75 Q-2.5 56.4 -2.9 55.25 -3.2 54.15 -2.85 52.9 -2.3 51.7 -1.2 50.95 L0.95 50.75 M5.05 65.4 Q5.25 66.2 6.6 67.15 L7.9 67.05 Q9.05 66.85 9.7 65.8 10.45 64.65 10.0 63.3 9.8 62.5 9.05 62.0 L7.2 61.85 Q6.05 62.25 5.5 63.25 4.65 64.25 5.05 65.4" fill="#efbccf" fill-rule="evenodd" stroke="none"/>
      <path d="M7.2 45.7 Q8.8 45.25 9.1 46.9 9.3 47.6 8.8 48.5 8.25 49.4 7.9 49.35 L6.6 49.2 6.4 48.95 5.65 48.25 5.65 48.2 Q5.4 47.2 6.0 46.4 6.35 45.9 7.2 45.7 M13.3 53.8 Q14.05 53.55 14.75 54.05 15.15 54.25 15.35 54.85 15.6 55.85 15.25 56.7 14.95 57.45 14.05 57.6 13.9 57.75 13.2 57.35 L12.2 56.6 Q11.85 56.15 12.25 55.05 12.45 54.2 13.3 53.8 M1.2 53.1 Q1.4 54.3 1.05 55.1 0.7 55.85 0.2 55.9 -0.45 56.25 -1.2 55.7 -1.6 55.5 -1.75 55.45 L-1.95 55.15 -2.05 54.75 -2.15 54.7 -1.95 53.9 -1.55 52.85 -0.35 51.8 Q-0.1 51.8 0.4 52.2 1.0 52.6 1.2 53.1 M5.05 65.4 Q4.65 64.25 5.5 63.25 6.05 62.25 7.2 61.85 L9.05 62.0 Q9.8 62.5 10.0 63.3 10.45 64.65 9.7 65.8 9.05 66.85 7.9 67.05 L6.6 67.15 Q5.25 66.2 5.05 65.4" fill="#ebd7d6" fill-rule="evenodd" stroke="none"/>
      <path d="M4.6 48.3 Q4.8 49.4 5.65 49.9 6.8 50.45 7.75 50.2 8.8 49.85 9.25 48.85 9.85 47.95 9.5 46.9 9.4 45.9 8.35 45.35 7.45 44.9 6.4 45.1 5.4 45.35 4.75 46.3 4.2 47.3 4.6 48.3 M14.2 41.35 Q15.2 41.0 15.4 43.0 L16.7 49.4 17.7 53.05 17.0 53.05 Q15.6 52.15 14.35 52.0 L15.7 53.35 Q17.8 55.5 18.2 57.1 19.5 61.7 16.65 66.6 14.75 69.95 12.1 71.45 7.6 73.1 1.5 70.3 -7.35 65.4 -5.8 55.0 L-4.55 51.75 Q0.7 41.6 14.2 41.35 M11.2 54.1 Q10.75 55.15 11.1 56.2 11.25 57.35 12.2 57.9 13.25 58.5 14.3 58.2 15.45 57.85 16.1 56.85 16.7 55.95 16.35 54.75 16.0 53.8 15.1 53.05 L12.95 52.9 Q11.85 53.1 11.2 54.1 M0.95 50.75 L-1.2 50.95 Q-2.3 51.7 -2.85 52.9 -3.2 54.15 -2.9 55.25 -2.5 56.4 -1.55 56.75 L0.8 56.45 Q2.0 55.75 2.3 54.5 2.7 53.15 2.4 52.05 1.95 50.95 0.95 50.75 M6.55 59.95 Q4.85 60.4 4.05 61.85 3.3 63.3 3.7 64.95 3.9 66.65 5.5 67.6 7.1 68.4 8.7 67.95 10.25 67.4 11.2 66.05 11.95 64.4 11.65 62.8 11.2 61.25 9.75 60.4 8.25 59.5 6.55 59.95" fill="#130029" fill-rule="evenodd" stroke="none"/>
      <path d="M17.0 53.05 L17.25 53.1 18.3 53.9 17.75 54.3 18.4 54.15 18.9 54.7 Q21.9 58.05 19.85 63.75 L19.75 64.0 Q16.55 69.8 12.1 71.45 14.75 69.95 16.65 66.6 19.5 61.7 18.2 57.1 17.8 55.5 15.7 53.35 L14.35 52.0 Q15.6 52.15 17.0 53.05" fill="#2a2446" fill-rule="evenodd" stroke="none"/>
      <path d="M17.0 53.05 L17.25 53.1 18.3 53.9 18.4 54.15 18.9 54.7 Q21.9 58.05 19.85 63.75 L19.75 64.0 Q16.55 69.8 12.1 71.45 7.6 73.1 1.5 70.3 -7.35 65.4 -5.8 55.0 L-4.55 51.75 Q0.7 41.6 14.2 41.35" fill="none" stroke="#230930" stroke-linecap="round" stroke-linejoin="round" stroke-width="2.5"/>
    </g>
    <g id="shape2" transform="matrix(1.0, 0.0, 0.0, 1.0, 1.25, 1.25)">
      <path d="M24.15 14.3 L22.4 14.1 Q20.6 13.55 20.45 9.9 20.6 8.85 21.4 8.3 L21.5 8.45 Q23.1 10.9 23.8 12.8 L24.15 14.25 24.15 14.3" fill="#efbccf" fill-rule="evenodd" stroke="none"/>
      <path d="M21.4 8.3 Q20.6 8.85 20.45 9.9 20.6 13.55 22.4 14.1 L24.15 14.3 24.25 15.2 Q24.25 17.25 23.0 18.85 20.9 18.75 19.35 16.05 17.75 13.3 17.75 9.5 17.75 6.55 17.9 6.25 18.1 5.75 19.25 5.25 L20.0 6.3 21.4 8.3" fill="#252944" fill-rule="evenodd" stroke="none"/>
      <path d="M19.25 5.25 Q18.1 5.75 17.9 6.25 17.75 6.55 17.75 9.5 17.75 13.3 19.35 16.05 20.9 18.75 23.0 18.85 L21.5 20.25 20.8 20.75 19.9 21.25 18.3 21.9 17.65 21.2 17.1 20.25 16.55 19.25 Q15.0 15.6 15.0 9.9 15.0 6.05 15.9 4.35 16.35 3.5 17.15 3.05 L18.65 4.55 19.25 5.25" fill="#2c4c61" fill-rule="evenodd" stroke="none"/>
      <path d="M5.6 1.35 Q6.35 0.85 7.2 0.55 L12.5 0.25 Q13.5 0.55 14.35 1.05 L15.85 2.0 17.15 3.05 Q16.35 3.5 15.9 4.35 15.0 6.05 15.0 9.9 15.0 15.6 16.55 19.25 L17.1 20.25 17.65 21.2 Q10.35 20.75 6.65 17.65 2.7 14.3 2.7 7.55 2.7 6.4 4.45 3.2 L5.6 1.35" fill="#3ad3e5" fill-rule="evenodd" stroke="none"/>
      <path d="M18.3 21.9 Q16.0 22.65 13.1 22.65 7.5 22.65 3.8 19.3 0.0 15.9 0.0 10.65 0.0 7.6 2.15 4.55 L2.5 4.1 Q3.85 2.4 5.6 1.35 L4.45 3.2 Q2.7 6.4 2.7 7.55 2.7 14.3 6.65 17.65 10.35 20.75 17.65 21.2 L18.3 21.9" fill="#adfccd" fill-rule="evenodd" stroke="none"/>
      <path d="M21.4 8.3 L20.0 6.3 19.25 5.25 18.65 4.55 17.15 3.05 15.85 2.0 14.35 1.05 Q13.5 0.55 12.5 0.25 L7.2 0.55 Q6.35 0.85 5.6 1.35 3.85 2.4 2.5 4.1 L2.15 4.55 Q0.0 7.6 0.0 10.65 0.0 15.9 3.8 19.3 7.5 22.65 13.1 22.65 16.0 22.65 18.3 21.9 L19.9 21.25 20.8 20.75 21.5 20.25 23.0 18.85 Q24.25 17.25 24.25 15.2 L24.15 14.3 24.15 14.25 23.8 12.8 Q23.1 10.9 21.5 8.45 L21.4 8.3 Z" fill="none" stroke="#230930" stroke-linecap="round" stroke-linejoin="round" stroke-width="2.5"/>
    </g>
    <g id="shape3" transform="matrix(1.0, 0.0, 0.0, 1.0, 1.25, 1.25)">
      <path d="M88.45 28.7 Q90.1 32.75 90.7 37.1 92.1 47.0 88.25 58.45 L85.9 63.2 Q83.4 65.55 80.15 67.6 73.3 72.0 68.65 72.0 55.05 72.0 45.65 62.85 36.9 54.5 36.9 44.2 36.9 33.35 44.05 25.95 51.4 18.4 62.7 18.4 78.85 18.4 88.45 28.7" fill="#67e9b9" fill-rule="evenodd" stroke="none"/>
      <path d="M61.45 2.2 Q66.7 4.95 70.95 8.0 78.95 13.7 83.8 20.3 L85.35 22.6 Q87.2 25.55 88.45 28.7 78.85 18.4 62.7 18.4 51.4 18.4 44.05 25.95 36.9 33.35 36.9 44.2 36.9 54.5 45.65 62.85 55.05 72.0 68.65 72.0 73.3 72.0 80.15 67.6 83.4 65.55 85.9 63.2 L85.5 63.9 85.4 64.1 83.8 66.55 Q80.45 71.25 76.2 74.4 73.9 76.1 71.25 77.35 68.1 78.85 64.5 79.7 L61.7 79.9 Q48.95 79.9 39.65 72.2 L35.7 68.4 Q31.35 63.65 28.9 57.8 26.6 52.2 26.6 47.2 26.6 41.85 29.85 37.1 L30.55 36.15 33.3 32.95 Q34.5 31.45 34.5 30.7 34.5 29.6 33.6 28.35 L31.55 25.8 Q28.55 21.95 20.4 17.3 12.25 12.6 19.3 11.45 26.4 10.25 33.9 10.2 L52.6 11.6 Q65.65 13.35 75.5 15.35 71.4 10.85 66.6 7.75 L61.8 4.6 Q60.9 3.85 60.9 2.95 L61.3 2.35 61.45 2.2" fill="#5dd7c8" fill-rule="evenodd" stroke="none"/>
      <path d="M64.5 79.7 Q58.15 81.1 50.45 80.4 L49.7 80.3 49.05 80.25 44.15 79.15 Q40.2 78.15 37.2 75.9 L32.85 72.2 32.55 71.8 29.5 69.2 Q14.1 56.6 12.9 32.4 L11.85 33.05 Q13.2 30.25 13.2 29.45 L13.15 29.05 Q12.95 27.6 11.75 26.25 L3.1 17.95 1.8 16.6 1.45 16.25 Q-2.25 12.6 3.5 10.7 4.9 10.25 6.85 9.9 L9.35 9.55 9.5 9.5 Q40.1 2.2 57.8 6.8 52.0 -2.15 58.55 0.7 L61.45 2.2 61.3 2.35 60.9 2.95 Q60.9 3.85 61.8 4.6 L66.6 7.75 Q71.4 10.85 75.5 15.35 65.65 13.35 52.6 11.6 L33.9 10.2 Q26.4 10.25 19.3 11.45 12.25 12.6 20.4 17.3 28.55 21.95 31.55 25.8 L33.6 28.35 Q34.5 29.6 34.5 30.7 34.5 31.45 33.3 32.95 L30.55 36.15 29.85 37.1 Q26.6 41.85 26.6 47.2 26.6 52.2 28.9 57.8 31.35 63.65 35.7 68.4 L39.65 72.2 Q48.95 79.9 61.7 79.9 L64.5 79.7 M69.05 11.8 Q64.3 8.4 57.8 6.8 64.3 8.4 69.05 11.8" fill="#3ad3e5" fill-rule="evenodd" stroke="none"/>
      <path d="M61.45 2.2 Q66.7 4.95 70.95 8.0 78.95 13.7 83.8 20.3 L85.35 22.6 Q87.2 25.55 88.45 28.7 90.1 32.75 90.7 37.1 92.1 47.0 88.25 58.45 L85.9 63.2 85.5 63.9 85.4 64.1 83.8 66.55 Q80.45 71.25 76.2 74.4 73.9 76.1 71.25 77.35 68.1 78.85 64.5 79.7 58.15 81.1 50.45 80.4 L49.7 80.3 49.05 80.25 44.15 79.15 Q40.2 78.15 37.2 75.9 L32.85 72.2 32.55 71.8 29.5 69.2 M11.85 33.05 Q13.2 30.25 13.2 29.45 L13.15 29.05 Q12.95 27.6 11.75 26.25 L3.1 17.95 1.8 16.6 1.45 16.25 Q-2.25 12.6 3.5 10.7 4.9 10.25 6.85 9.9 L9.35 9.55 9.5 9.5 Q40.1 2.2 57.8 6.8 52.0 -2.15 58.55 0.7 L61.45 2.2" fill="none" stroke="#230930" stroke-linecap="round" stroke-linejoin="round" stroke-width="2.5"/>
      <path d="M57.8 6.8 Q64.3 8.4 69.05 11.8" fill="none" stroke="#265573" stroke-linecap="round" stroke-linejoin="round" stroke-width="1.0"/>
    </g>
    <g id="shape4" transform="matrix(1.0, 0.0, 0.0, 1.0, -67.6, -61.05)">
      <path d="M68.95 63.5 Q70.0 62.2 71.9 61.7 L75.4 61.9 Q76.95 62.55 77.35 63.95 L77.4 64.75 Q77.3 65.7 76.55 66.55 75.45 67.85 73.55 68.35 L70.1 68.1 68.85 67.35 Q68.35 66.85 68.15 66.15 67.85 64.75 68.95 63.5" fill="#ffffff" fill-rule="evenodd" stroke="none"/>
      <path d="M68.95 63.5 Q70.0 62.2 71.9 61.7 L75.4 61.9 Q76.95 62.55 77.35 63.95 L77.4 64.75 Q77.3 65.7 76.55 66.55 75.45 67.85 73.55 68.35 L70.1 68.1 68.85 67.35 Q68.35 66.85 68.15 66.15 67.85 64.75 68.95 63.5 Z" fill="none" stroke="#265573" stroke-linecap="round" stroke-linejoin="round" stroke-width="1.0"/>
    </g>
    <g id="shape5" transform="matrix(1.0, 0.0, 0.0, 1.0, -58.05, -23.25)">
      <path d="M73.35 24.6 Q75.25 25.75 77.9 28.95 79.3 31.7 79.55 35.05 80.05 40.35 77.45 44.8 74.55 49.85 69.6 49.85 65.7 49.85 61.9 44.8 58.45 40.25 58.1 36.25 57.55 30.2 61.7 26.25 64.85 23.25 67.2 23.25 71.1 23.25 73.35 24.6 M74.0 28.05 L72.55 26.6 Q71.85 26.25 71.0 26.25 69.35 26.25 68.85 27.25 68.4 28.05 68.6 30.0 69.0 34.3 72.5 34.3 73.8 34.3 74.35 32.75 74.75 31.7 74.65 30.5 L74.15 28.3 74.0 28.05" fill="#adfccd" fill-rule="evenodd" stroke="none"/>
      <path d="M74.0 28.05 L74.15 28.3 74.65 30.5 Q74.75 31.7 74.35 32.75 73.8 34.3 72.5 34.3 69.0 34.3 68.6 30.0 68.4 28.05 68.85 27.25 69.35 26.25 71.0 26.25 71.85 26.25 72.55 26.6 L74.0 28.05" fill="#d5ffe6" fill-rule="evenodd" stroke="none"/>
    </g>
    <g id="shape6" transform="matrix(1.0, 0.0, 0.0, 1.0, -13.1, -7.75)">
      <path d="M89.2 31.85 Q86.8 29.9 84.3 29.9 80.7 29.9 79.4 33.8 78.95 35.15 78.35 39.0 78.0 35.25 78.2 30.65 78.75 28.85 79.45 27.75 81.05 25.15 83.75 25.15 85.3 25.15 87.2 26.95 88.4 29.35 89.2 31.85" fill="#5b2a42" fill-rule="evenodd" stroke="none"/>
      <path d="M87.2 26.95 Q85.3 25.15 83.75 25.15 81.05 25.15 79.45 27.75 78.75 28.85 78.2 30.65 78.55 24.1 79.85 15.85 84.5 21.25 87.2 26.95" fill="#40223e" fill-rule="evenodd" stroke="none"/>
      <path d="M78.35 39.0 Q78.95 35.15 79.4 33.8 80.7 29.9 84.3 29.9 86.8 29.9 89.2 31.85 92.35 41.45 90.1 51.8 87.0 54.9 82.8 51.7 79.15 47.75 78.35 39.0" fill="#81425d" fill-rule="evenodd" stroke="none"/>
      <path d="M89.2 31.85 Q88.4 29.35 87.2 26.95 84.5 21.25 79.85 15.85 78.55 24.1 78.2 30.65 78.0 35.25 78.35 39.0 79.15 47.75 82.8 51.7 87.0 54.9 90.1 51.8 92.35 41.45 89.2 31.85 Z" fill="none" stroke="#265573" stroke-linecap="round" stroke-linejoin="round" stroke-width="1.0"/>
      <path d="M88.1 36.7 Q82.85 41.05 81.85 42.2 87.3 42.35 89.7 41.3" fill="none" stroke="#230930" stroke-linecap="round" stroke-linejoin="round" stroke-width="2.5"/>
      <path d="M28.3 16.55 Q43.95 16.05 51.6 22.75 53.55 24.6 54.9 26.9 L56.9 30.6 Q57.95 32.9 58.55 35.25 59.1 37.75 59.25 40.4 L59.3 41.05 Q59.3 43.85 58.6 46.45 L58.2 47.7 57.3 49.9 56.0 52.1 53.75 54.7 53.35 55.05 51.35 56.6 50.15 57.4 Q45.4 60.3 40.65 60.6 37.45 60.8 34.45 59.8 32.0 59.05 29.8 57.7 27.15 56.1 25.2 53.6 23.3 51.15 21.75 48.45 L19.95 45.15 Q18.75 42.65 17.8 39.8 21.35 39.35 24.6 35.85 29.35 30.75 29.35 21.8 29.35 19.4 28.3 16.55" fill="#81425d" fill-rule="evenodd" stroke="none"/>
      <path d="M17.8 39.8 Q16.05 34.5 14.85 28.15 L16.85 28.35 Q19.85 28.35 21.4 26.75 23.4 24.75 23.4 20.2 L22.95 16.85 28.3 16.55 Q29.35 19.4 29.35 21.8 29.35 30.75 24.6 35.85 21.35 39.35 17.8 39.8" fill="#5b2a42" fill-rule="evenodd" stroke="none"/>
      <path d="M14.85 28.15 Q14.1 23.45 13.6 18.15 L22.95 16.85 23.4 20.2 Q23.4 24.75 21.4 26.75 19.85 28.35 16.85 28.35 L14.85 28.15" fill="#40223e" fill-rule="evenodd" stroke="none"/>
      <path d="M28.3 16.55 Q43.95 16.05 51.6 22.75 53.55 24.6 54.9 26.9 L56.9 30.6 Q57.95 32.9 58.55 35.25 59.1 37.75 59.25 40.4 L59.3 41.05 Q59.3 43.85 58.6 46.45 L58.2 47.7 57.3 49.9 56.0 52.1 53.75 54.7 53.35 55.05 51.35 56.6 50.15 57.4 Q45.4 60.3 40.65 60.6 37.45 60.8 34.45 59.8 32.0 59.05 29.8 57.7 27.15 56.1 25.2 53.6 23.3 51.15 21.75 48.45 L19.95 45.15 Q18.75 42.65 17.8 39.8 16.05 34.5 14.85 28.15 14.1 23.45 13.6 18.15 L22.95 16.85 28.3 16.55 Z" fill="none" stroke="#411d33" stroke-linecap="round" stroke-linejoin="round" stroke-width="1.0"/>
      <path d="M28.6 47.3 Q35.2 47.5 48.6 44.85 L28.0 38.1" fill="none" stroke="#230930" stroke-linecap="round" stroke-linejoin="round" stroke-width="2.5"/>
      <path d="M69.5 16.1 L64.05 17.0 69.5 16.1 76.75 15.9 82.1 20.65 71.65 21.3 Q74.05 28.85 71.7 34.45 L64.8 32.2 Q66.55 28.1 65.75 22.95 61.3 24.75 58.75 28.1 L53.4 23.35 Q56.85 18.7 64.05 17.0 62.5 12.85 59.6 8.25 L66.4 10.5 69.5 16.1 M71.65 21.3 Q68.3 21.85 65.75 22.95 68.3 21.85 71.65 21.3" fill="#ffffff" fill-rule="evenodd" stroke="none"/>
      <path d="M64.05 17.0 L69.5 16.1 66.4 10.5 59.6 8.25 Q62.5 12.85 64.05 17.0 56.85 18.7 53.4 23.35 L58.75 28.1 Q61.3 24.75 65.75 22.95 68.3 21.85 71.65 21.3 L82.1 20.65 76.75 15.9 69.5 16.1 M71.65 21.3 Q74.05 28.85 71.7 34.45 L64.8 32.2 Q66.55 28.1 65.75 22.95" fill="none" stroke="#cccccc" stroke-linecap="round" stroke-linejoin="round" stroke-width="1.0"/>
    </g>
    <g id="shape7" transform="matrix(1.0, 0.0, 0.0, 1.0, 1.25, 1.0)">
      <path d="M11.3 0.25 L12.45 0.1 14.95 0.0 15.3 0.0 18.5 0.65 Q21.7 1.25 24.65 4.9 27.65 8.55 26.25 13.05 L24.45 14.6 Q22.05 15.25 18.3 17.25 12.8 20.25 8.3 20.25 L1.9 19.4 1.55 18.85 1.15 17.95 Q3.35 18.7 5.7 18.7 10.6 18.7 15.05 16.3 20.2 13.55 20.2 9.35 20.2 5.9 16.25 2.8 13.55 0.7 11.3 0.25" fill="#3ad3e5" fill-rule="evenodd" stroke="none"/>
      <path d="M1.9 19.4 L8.3 20.25 Q12.8 20.25 18.3 17.25 22.05 15.25 24.45 14.6 L20.5 17.7 Q17.55 19.85 15.3 20.85 11.85 22.3 9.15 22.6 4.25 23.05 1.9 19.4" fill="#adfccd" fill-rule="evenodd" stroke="none"/>
      <path d="M11.3 0.25 Q13.55 0.7 16.25 2.8 20.2 5.9 20.2 9.35 20.2 13.55 15.05 16.3 10.6 18.7 5.7 18.7 3.35 18.7 1.15 17.95 0.45 16.2 0.1 13.8 -1.05 1.7 11.3 0.25 M13.45 6.05 L13.25 5.75 13.4 6.15 Q11.2 2.8 8.9 2.8 6.65 2.8 4.75 4.8 2.75 6.8 2.75 9.0 2.75 11.2 4.55 13.4 6.3 15.65 8.55 15.6 10.8 15.5 12.25 14.3 14.25 12.7 14.25 9.35 L14.0 7.85 13.6 6.25 13.45 6.05" fill="#2c4c61" fill-rule="evenodd" stroke="none"/>
      <path d="M13.45 6.05 L13.6 6.25 14.0 7.85 14.25 9.35 Q14.25 12.7 12.25 14.3 10.8 15.5 8.55 15.6 6.3 15.65 4.55 13.4 2.75 11.2 2.75 9.0 2.75 6.8 4.75 4.8 6.65 2.8 8.9 2.8 11.2 2.8 13.4 6.15 L13.25 5.75 13.45 6.05 M3.55 7.25 Q3.55 7.9 4.0 8.75 4.65 9.85 5.65 9.85 6.5 9.85 7.0 9.1 7.55 8.4 7.55 7.15 L7.45 6.6 Q7.25 5.55 6.1 5.05 5.0 4.5 4.25 5.4 3.55 6.25 3.55 7.25" fill="#252944" fill-rule="evenodd" stroke="none"/>
      <path d="M3.55 7.25 Q3.55 6.25 4.25 5.4 5.0 4.5 6.1 5.05 7.25 5.55 7.45 6.6 L7.55 7.15 Q7.55 8.4 7.0 9.1 6.5 9.85 5.65 9.85 4.65 9.85 4.0 8.75 3.55 7.9 3.55 7.25" fill="#efbccf" fill-rule="evenodd" stroke="none"/>
      <path d="M1.15 17.95 L1.55 18.85 1.9 19.4 Q4.25 23.05 9.15 22.6 11.85 22.3 15.3 20.85 17.55 19.85 20.5 17.7 L24.45 14.6 26.25 13.05 26.95 12.4 M11.3 0.25 Q-1.05 1.7 0.1 13.8 0.45 16.2 1.15 17.95" fill="none" stroke="#230930" stroke-linecap="round" stroke-linejoin="round" stroke-width="2.5"/>
    </g>
  </defs>
</svg>
