<?xml version="1.0" encoding="UTF-8" standalone="no"?>
<svg xmlns:ffdec="https://www.free-decompiler.com/flash" xmlns:xlink="http://www.w3.org/1999/xlink" ffdec:objectType="frame" height="174.85px" width="255.05px" xmlns="http://www.w3.org/2000/svg">
  <g transform="matrix(1.0, 0.0, 0.0, 1.0, 159.25, 30.25)">
    <use ffdec:characterId="1" height="19.7" transform="matrix(1.0191, 0.0, 0.0, 0.8898, -28.65, 125.35)" width="75.5" xlink:href="#shape0"/>
    <use ffdec:characterId="87" height="94.05" transform="matrix(0.7781, -0.6258, 0.6258, 0.7781, -74.1954, 58.3297)" width="84.5" xlink:href="#shape1"/>
    <use ffdec:characterId="3" height="25.15" transform="matrix(0.9322, 0.3589, -0.3589, 0.9322, 13.8334, 66.6862)" width="26.75" xlink:href="#shape2"/>
    <use ffdec:characterId="37" height="83.15" transform="matrix(0.9799, 0.1961, -0.1961, 0.9799, -42.5798, -3.42)" width="93.55" xlink:href="#shape3"/>
    <use ffdec:characterId="38" height="3.85" transform="matrix(0.9799, 0.1961, -0.1961, 0.9799, 9.0836, 71.9928)" width="13.65" xlink:href="#shape4"/>
    <use ffdec:characterId="39" height="26.6" transform="matrix(0.9799, 0.1961, -0.1961, 0.9799, 10.7249, 32.2171)" width="21.6" xlink:href="#shape5"/>
    <use ffdec:characterId="85" height="53.4" transform="matrix(0.9799, 0.1961, -0.1961, 0.9799, -30.2829, 8.2134)" width="78.45" xlink:href="#shape6"/>
    <use ffdec:characterId="8" height="24.9" transform="matrix(0.7548, -0.6535, 0.6535, 0.7548, -50.547, 75.662)" width="29.45" xlink:href="#shape7"/>
  </g>
  <defs>
    <g id="shape0" transform="matrix(1.0, 0.0, 0.0, 1.0, 0.0, 0.0)">
      <path d="M75.5 9.85 Q75.5 13.95 64.45 16.8 53.3 19.7 37.75 19.7 22.1 19.7 11.0 16.8 0.0 13.95 0.0 9.85 0.0 5.75 11.0 2.85 22.1 0.0 37.75 0.0 53.3 0.0 64.45 2.85 75.5 5.75 75.5 9.85" fill="#000000" fill-opacity="0.29803923" fill-rule="evenodd" stroke="none"/>
    </g>
    <g id="shape1" transform="matrix(1.0, 0.0, 0.0, 1.0, -8.9, 18.25)">
      <path d="M38.7 33.65 L35.95 36.6 Q27.8 30.05 19.35 31.8 20.4 28.75 21.75 25.8 31.45 25.0 38.7 33.65" fill="#26596c" fill-rule="evenodd" stroke="none"/>
      <path d="M35.95 36.6 Q34.85 37.85 33.9 39.2 25.75 33.95 17.75 36.4 L19.35 31.8 Q27.8 30.05 35.95 36.6" fill="#2b3b52" fill-rule="evenodd" stroke="none"/>
      <path d="M33.9 39.2 Q32.5 41.15 31.25 43.45 23.35 40.3 16.4 43.5 16.55 40.05 17.7 36.55 L17.75 36.4 Q25.75 33.95 33.9 39.2" fill="#220154" fill-rule="evenodd" stroke="none"/>
      <path d="M31.25 43.45 L30.9 44.15 22.3 58.55 Q18.95 57.45 17.85 54.15 16.05 48.95 16.4 43.5 23.35 40.3 31.25 43.45 M23.45 44.5 Q22.6 44.85 22.2 45.65 21.85 46.4 22.2 47.2 22.55 48.05 23.3 48.4 24.15 48.8 24.85 48.4 25.65 48.15 26.05 47.35 26.45 46.55 26.15 45.8 25.8 44.95 25.05 44.6 L23.45 44.5" fill="#17003c" fill-rule="evenodd" stroke="none"/>
      <path d="M21.75 25.8 Q24.1 20.65 27.05 15.65 33.15 5.4 41.3 -3.15 48.35 -10.55 58.8 -17.0 80.05 -8.45 86.95 -1.6 93.95 5.25 91.5 5.8 79.85 24.6 61.55 26.8 43.2 29.05 38.7 33.65 31.45 25.0 21.75 25.8" fill="#3ad3e5" fill-rule="evenodd" stroke="none"/>
      <path d="M23.45 44.5 L25.05 44.6 Q25.8 44.95 26.15 45.8 26.45 46.55 26.05 47.35 25.65 48.15 24.85 48.4 24.15 48.8 23.3 48.4 22.55 48.05 22.2 47.2 21.85 46.4 22.2 45.65 22.6 44.85 23.45 44.5 M25.25 44.95 L24.3 44.75 Q23.4 44.8 23.05 45.65 22.4 47.2 23.6 47.7 25.05 48.4 25.7 46.95 L25.9 46.4 25.85 45.85 Q25.85 45.2 25.25 44.95" fill="#efbccf" fill-rule="evenodd" stroke="none"/>
      <path d="M25.25 44.95 Q25.85 45.2 25.85 45.85 L25.9 46.4 25.7 46.95 Q25.05 48.4 23.6 47.7 22.4 47.2 23.05 45.65 23.4 44.8 24.3 44.75 L25.25 44.95" fill="#ebd7d6" fill-rule="evenodd" stroke="none"/>
      <path d="M21.75 25.8 Q24.1 20.65 27.05 15.65 33.15 5.4 41.3 -3.15 48.35 -10.55 58.8 -17.0 80.05 -8.45 86.95 -1.6 93.95 5.25 91.5 5.8 79.85 24.6 61.55 26.8 43.2 29.05 38.7 33.65 L35.95 36.6 Q34.85 37.85 33.9 39.2 32.5 41.15 31.25 43.45 L30.9 44.15 22.3 58.55 Q18.95 57.45 17.85 54.15 16.05 48.95 16.4 43.5 16.55 40.05 17.7 36.55 L17.75 36.4 19.35 31.8 Q20.4 28.75 21.75 25.8 Z" fill="none" stroke="#230930" stroke-linecap="round" stroke-linejoin="round" stroke-width="2.5"/>
      <path d="M26.7 52.8 Q26.15 52.6 25.65 52.8 24.85 53.0 24.6 53.75 24.4 54.65 24.95 55.3 25.5 56.3 26.05 56.35 L27.3 56.05 28.0 55.55 Q28.45 54.75 28.05 54.0 27.7 53.2 26.7 52.8 M27.3 51.95 Q28.4 52.5 28.75 53.5 29.1 54.6 28.65 55.8 28.25 56.75 27.1 57.2 L25.05 57.0 Q24.0 56.55 23.5 55.6 23.2 54.4 23.65 53.4 24.1 52.3 25.15 51.9 L27.3 51.95 M26.95 65.75 Q27.25 67.0 28.35 67.5 L30.7 67.35 31.45 66.3 Q32.05 65.3 31.65 64.1 31.2 62.75 29.9 62.35 L28.3 62.2 Q27.55 62.55 27.05 63.55 26.6 64.7 26.95 65.75 M27.15 68.25 Q25.6 67.5 25.0 65.95 24.4 64.45 25.15 62.8 25.85 61.3 27.5 60.7 L30.55 60.75 Q32.0 61.5 32.8 63.1 33.25 64.7 32.65 66.25 31.95 67.75 30.4 68.45 L27.15 68.25 M17.65 53.85 Q17.3 52.9 16.6 52.6 15.15 51.8 14.45 53.35 14.05 54.15 14.25 54.7 14.45 55.65 15.4 56.1 L15.45 56.1 16.5 56.0 16.85 56.05 Q17.4 55.9 17.75 55.2 18.05 54.9 17.65 53.85 M14.4 61.35 Q15.25 60.7 16.35 61.1 17.45 61.55 18.2 62.7 18.95 63.75 18.75 65.1 18.45 66.25 17.5 67.1 L15.5 67.2 Q14.4 66.75 13.7 65.65 13.1 64.5 13.2 63.15 13.5 61.95 14.4 61.35 M16.9 52.3 Q17.9 52.7 18.25 53.75 18.7 54.75 18.3 55.75 17.9 56.7 16.75 57.2 L14.85 57.0 Q13.8 56.65 13.4 55.6 13.05 54.5 13.5 53.55 14.0 52.65 14.95 52.25 L16.9 52.3 M16.45 62.7 L15.25 62.65 Q14.6 62.8 14.45 63.05 14.25 63.45 14.45 64.65 L15.0 65.6 15.55 66.25 15.65 66.2 16.0 66.4 16.35 66.45 16.95 66.2 Q17.85 65.9 17.95 65.2 18.25 64.8 17.85 64.05 17.5 63.25 16.45 62.7" fill="#efbccf" fill-rule="evenodd" stroke="none"/>
      <path d="M26.7 52.8 Q27.7 53.2 28.05 54.0 28.45 54.75 28.0 55.55 L27.3 56.05 26.05 56.35 Q25.5 56.3 24.95 55.3 24.4 54.65 24.6 53.75 24.85 53.0 25.65 52.8 26.15 52.6 26.7 52.8 M26.95 65.75 Q26.6 64.7 27.05 63.55 27.55 62.55 28.3 62.2 L29.9 62.35 Q31.2 62.75 31.65 64.1 32.05 65.3 31.45 66.3 L30.7 67.35 28.35 67.5 Q27.25 67.0 26.95 65.75 M17.65 53.85 Q18.05 54.9 17.75 55.2 17.4 55.9 16.85 56.05 L16.5 56.0 15.45 56.1 15.4 56.1 Q14.45 55.65 14.25 54.7 14.05 54.15 14.45 53.35 15.15 51.8 16.6 52.6 17.3 52.9 17.65 53.85 M16.45 62.7 Q17.5 63.25 17.85 64.05 18.25 64.8 17.95 65.2 17.85 65.9 16.95 66.2 L16.35 66.45 16.0 66.4 15.65 66.2 15.55 66.25 15.0 65.6 14.45 64.65 Q14.25 63.45 14.45 63.05 14.6 62.8 15.25 62.65 L16.45 62.7" fill="#ebd7d6" fill-rule="evenodd" stroke="none"/>
      <path d="M15.5 45.1 Q15.9 44.1 17.6 45.3 L23.35 48.25 26.8 49.85 26.35 50.4 Q24.8 50.95 23.9 51.85 L25.75 51.6 Q28.75 51.35 30.25 52.05 34.65 53.9 36.6 59.25 38.0 62.85 37.5 65.8 35.9 70.4 29.95 73.3 20.5 77.1 13.45 69.35 12.45 67.9 11.8 66.25 7.2 55.75 15.5 45.1 M27.3 51.95 L25.15 51.9 Q24.1 52.3 23.65 53.4 23.2 54.4 23.5 55.6 24.0 56.55 25.05 57.0 L27.1 57.2 Q28.25 56.75 28.65 55.8 29.1 54.6 28.75 53.5 28.4 52.5 27.3 51.95 M27.15 68.25 L30.4 68.45 Q31.95 67.75 32.65 66.25 33.25 64.7 32.8 63.1 32.0 61.5 30.55 60.75 L27.5 60.7 Q25.85 61.3 25.15 62.8 24.4 64.45 25.0 65.95 25.6 67.5 27.15 68.25 M16.9 52.3 L14.95 52.25 Q14.0 52.65 13.5 53.55 13.05 54.5 13.4 55.6 13.8 56.65 14.85 57.0 L16.75 57.2 Q17.9 56.7 18.3 55.75 18.7 54.75 18.25 53.75 17.9 52.7 16.9 52.3 M14.4 61.35 Q13.5 61.95 13.2 63.15 13.1 64.5 13.7 65.65 14.4 66.75 15.5 67.2 L17.5 67.1 Q18.45 66.25 18.75 65.1 18.95 63.75 18.2 62.7 17.45 61.55 16.35 61.1 15.25 60.7 14.4 61.35" fill="#130029" fill-rule="evenodd" stroke="none"/>
      <path d="M26.35 50.4 L26.55 50.2 27.8 49.95 Q27.75 51.0 27.85 50.6 L28.1 50.0 28.8 50.0 Q33.35 49.75 36.5 54.95 L36.6 55.15 Q39.05 61.35 37.5 65.8 38.0 62.85 36.6 59.25 34.65 53.9 30.25 52.05 28.75 51.35 25.75 51.6 L23.9 51.85 Q24.8 50.95 26.35 50.4" fill="#2a2446" fill-rule="evenodd" stroke="none"/>
      <path d="M26.35 50.4 L26.55 50.2 27.8 49.95 28.1 50.0 28.8 50.0 Q33.35 49.75 36.5 54.95 L36.6 55.15 Q39.05 61.35 37.5 65.8 35.9 70.4 29.95 73.3 20.5 77.1 13.45 69.35 12.45 67.9 11.8 66.25 7.2 55.75 15.5 45.1" fill="none" stroke="#230930" stroke-linecap="round" stroke-linejoin="round" stroke-width="2.5"/>
    </g>
    <g id="shape2" transform="matrix(1.0, 0.0, 0.0, 1.0, 1.25, 1.25)">
      <path d="M24.15 14.3 L22.4 14.1 Q20.6 13.55 20.45 9.9 20.6 8.85 21.4 8.3 L21.5 8.45 Q23.1 10.9 23.8 12.8 L24.15 14.25 24.15 14.3" fill="#efbccf" fill-rule="evenodd" stroke="none"/>
      <path d="M21.4 8.3 Q20.6 8.85 20.45 9.9 20.6 13.55 22.4 14.1 L24.15 14.3 24.25 15.2 Q24.25 17.25 23.0 18.85 20.9 18.75 19.35 16.05 17.75 13.3 17.75 9.5 17.75 6.55 17.9 6.25 18.1 5.75 19.25 5.25 L20.0 6.3 21.4 8.3" fill="#252944" fill-rule="evenodd" stroke="none"/>
      <path d="M19.25 5.25 Q18.1 5.75 17.9 6.25 17.75 6.55 17.75 9.5 17.75 13.3 19.35 16.05 20.9 18.75 23.0 18.85 L21.5 20.25 20.8 20.75 19.9 21.25 18.3 21.9 17.65 21.2 17.1 20.25 16.55 19.25 Q15.0 15.6 15.0 9.9 15.0 6.05 15.9 4.35 16.35 3.5 17.15 3.05 L18.65 4.55 19.25 5.25" fill="#2c4c61" fill-rule="evenodd" stroke="none"/>
      <path d="M5.6 1.35 Q6.35 0.85 7.2 0.55 L12.5 0.25 Q13.5 0.55 14.35 1.05 L15.85 2.0 17.15 3.05 Q16.35 3.5 15.9 4.35 15.0 6.05 15.0 9.9 15.0 15.6 16.55 19.25 L17.1 20.25 17.65 21.2 Q10.35 20.75 6.65 17.65 2.7 14.3 2.7 7.55 2.7 6.4 4.45 3.2 L5.6 1.35" fill="#3ad3e5" fill-rule="evenodd" stroke="none"/>
      <path d="M18.3 21.9 Q16.0 22.65 13.1 22.65 7.5 22.65 3.8 19.3 0.0 15.9 0.0 10.65 0.0 7.6 2.15 4.55 L2.5 4.1 Q3.85 2.4 5.6 1.35 L4.45 3.2 Q2.7 6.4 2.7 7.55 2.7 14.3 6.65 17.65 10.35 20.75 17.65 21.2 L18.3 21.9" fill="#adfccd" fill-rule="evenodd" stroke="none"/>
      <path d="M21.4 8.3 L20.0 6.3 19.25 5.25 18.65 4.55 17.15 3.05 15.85 2.0 14.35 1.05 Q13.5 0.55 12.5 0.25 L7.2 0.55 Q6.35 0.85 5.6 1.35 3.85 2.4 2.5 4.1 L2.15 4.55 Q0.0 7.6 0.0 10.65 0.0 15.9 3.8 19.3 7.5 22.65 13.1 22.65 16.0 22.65 18.3 21.9 L19.9 21.25 20.8 20.75 21.5 20.25 23.0 18.85 Q24.25 17.25 24.25 15.2 L24.15 14.3 24.15 14.25 23.8 12.8 Q23.1 10.9 21.5 8.45 L21.4 8.3 Z" fill="none" stroke="#230930" stroke-linecap="round" stroke-linejoin="round" stroke-width="2.5"/>
    </g>
    <g id="shape3" transform="matrix(1.0, 0.0, 0.0, 1.0, 1.25, 1.25)">
      <path d="M88.45 28.7 Q90.1 32.75 90.7 37.1 92.1 47.0 88.25 58.45 L85.9 63.2 Q83.4 65.55 80.15 67.6 73.3 72.0 68.65 72.0 55.05 72.0 45.65 62.85 36.9 54.5 36.9 44.2 36.9 33.35 44.05 25.95 51.4 18.4 62.7 18.4 78.85 18.4 88.45 28.7" fill="#67e9b9" fill-rule="evenodd" stroke="none"/>
      <path d="M61.45 2.2 Q66.7 4.95 70.95 8.0 78.95 13.7 83.8 20.3 L85.35 22.6 Q87.2 25.55 88.45 28.7 78.85 18.4 62.7 18.4 51.4 18.4 44.05 25.95 36.9 33.35 36.9 44.2 36.9 54.5 45.65 62.85 55.05 72.0 68.65 72.0 73.3 72.0 80.15 67.6 83.4 65.55 85.9 63.2 L85.5 63.9 85.4 64.1 83.8 66.55 Q80.45 71.25 76.2 74.4 73.9 76.1 71.25 77.35 68.1 78.85 64.5 79.7 L61.7 79.9 Q48.95 79.9 39.65 72.2 L35.7 68.4 Q31.35 63.65 28.9 57.8 26.6 52.2 26.6 47.2 26.6 41.85 29.85 37.1 L30.55 36.15 33.3 32.95 Q34.5 31.45 34.5 30.7 34.5 29.6 33.6 28.35 L31.55 25.8 Q28.55 21.95 20.4 17.3 12.25 12.6 19.3 11.45 26.4 10.25 33.9 10.2 L52.6 11.6 Q65.65 13.35 75.5 15.35 71.4 10.85 66.6 7.75 L61.8 4.6 Q60.9 3.85 60.9 2.95 L61.3 2.35 61.45 2.2" fill="#5dd7c8" fill-rule="evenodd" stroke="none"/>
      <path d="M64.5 79.7 Q58.15 81.1 50.45 80.4 L49.7 80.3 49.05 80.25 44.15 79.15 Q40.2 78.15 37.2 75.9 L32.85 72.2 32.55 71.8 29.5 69.2 Q14.1 56.6 12.9 32.4 L11.85 33.05 Q13.2 30.25 13.2 29.45 L13.15 29.05 Q12.95 27.6 11.75 26.25 L3.1 17.95 1.8 16.6 1.45 16.25 Q-2.25 12.6 3.5 10.7 4.9 10.25 6.85 9.9 L9.35 9.55 9.5 9.5 Q40.1 2.2 57.8 6.8 52.0 -2.15 58.55 0.7 L61.45 2.2 61.3 2.35 60.9 2.95 Q60.9 3.85 61.8 4.6 L66.6 7.75 Q71.4 10.85 75.5 15.35 65.65 13.35 52.6 11.6 L33.9 10.2 Q26.4 10.25 19.3 11.45 12.25 12.6 20.4 17.3 28.55 21.95 31.55 25.8 L33.6 28.35 Q34.5 29.6 34.5 30.7 34.5 31.45 33.3 32.95 L30.55 36.15 29.85 37.1 Q26.6 41.85 26.6 47.2 26.6 52.2 28.9 57.8 31.35 63.65 35.7 68.4 L39.65 72.2 Q48.95 79.9 61.7 79.9 L64.5 79.7 M69.05 11.8 Q64.3 8.4 57.8 6.8 64.3 8.4 69.05 11.8" fill="#3ad3e5" fill-rule="evenodd" stroke="none"/>
      <path d="M61.45 2.2 Q66.7 4.95 70.95 8.0 78.95 13.7 83.8 20.3 L85.35 22.6 Q87.2 25.55 88.45 28.7 90.1 32.75 90.7 37.1 92.1 47.0 88.25 58.45 L85.9 63.2 85.5 63.9 85.4 64.1 83.8 66.55 Q80.45 71.25 76.2 74.4 73.9 76.1 71.25 77.35 68.1 78.85 64.5 79.7 58.15 81.1 50.45 80.4 L49.7 80.3 49.05 80.25 44.15 79.15 Q40.2 78.15 37.2 75.9 L32.85 72.2 32.55 71.8 29.5 69.2 M11.85 33.05 Q13.2 30.25 13.2 29.45 L13.15 29.05 Q12.95 27.6 11.75 26.25 L3.1 17.95 1.8 16.6 1.45 16.25 Q-2.25 12.6 3.5 10.7 4.9 10.25 6.85 9.9 L9.35 9.55 9.5 9.5 Q40.1 2.2 57.8 6.8 52.0 -2.15 58.55 0.7 L61.45 2.2" fill="none" stroke="#230930" stroke-linecap="round" stroke-linejoin="round" stroke-width="2.5"/>
      <path d="M57.8 6.8 Q64.3 8.4 69.05 11.8" fill="none" stroke="#265573" stroke-linecap="round" stroke-linejoin="round" stroke-width="1.0"/>
    </g>
    <g id="shape4" transform="matrix(1.0, 0.0, 0.0, 1.0, -64.25, -62.6)">
      <path d="M77.4 65.3 Q76.95 63.95 76.1 63.5 75.25 63.0 74.5 63.15 73.75 63.35 71.6 64.65 L70.45 65.3 Q68.95 65.95 67.55 65.95 L66.1 65.65 64.75 65.1" fill="none" stroke="#265573" stroke-linecap="round" stroke-linejoin="round" stroke-width="1.0"/>
    </g>
    <g id="shape5" transform="matrix(1.0, 0.0, 0.0, 1.0, -58.05, -23.25)">
      <path d="M73.35 24.6 Q75.25 25.75 77.9 28.95 79.3 31.7 79.55 35.05 80.05 40.35 77.45 44.8 74.55 49.85 69.6 49.85 65.7 49.85 61.9 44.8 58.45 40.25 58.1 36.25 57.55 30.2 61.7 26.25 64.85 23.25 67.2 23.25 71.1 23.25 73.35 24.6 M74.0 28.05 L72.55 26.6 Q71.85 26.25 71.0 26.25 69.35 26.25 68.85 27.25 68.4 28.05 68.6 30.0 69.0 34.3 72.5 34.3 73.8 34.3 74.35 32.75 74.75 31.7 74.65 30.5 L74.15 28.3 74.0 28.05" fill="#adfccd" fill-rule="evenodd" stroke="none"/>
      <path d="M74.0 28.05 L74.15 28.3 74.65 30.5 Q74.75 31.7 74.35 32.75 73.8 34.3 72.5 34.3 69.0 34.3 68.6 30.0 68.4 28.05 68.85 27.25 69.35 26.25 71.0 26.25 71.85 26.25 72.55 26.6 L74.0 28.05" fill="#d5ffe6" fill-rule="evenodd" stroke="none"/>
    </g>
    <g id="shape6" transform="matrix(1.0, 0.0, 0.0, 1.0, -13.1, -7.75)">
      <path d="M89.2 31.85 Q86.8 29.9 84.3 29.9 80.7 29.9 79.4 33.8 78.95 35.15 78.35 39.0 78.0 35.25 78.2 30.65 78.75 28.85 79.45 27.75 81.05 25.15 83.75 25.15 85.3 25.15 87.2 26.95 88.4 29.35 89.2 31.85" fill="#5b2a42" fill-rule="evenodd" stroke="none"/>
      <path d="M87.2 26.95 Q85.3 25.15 83.75 25.15 81.05 25.15 79.45 27.75 78.75 28.85 78.2 30.65 78.55 24.1 79.85 15.85 84.5 21.25 87.2 26.95" fill="#40223e" fill-rule="evenodd" stroke="none"/>
      <path d="M78.35 39.0 Q78.95 35.15 79.4 33.8 80.7 29.9 84.3 29.9 86.8 29.9 89.2 31.85 92.35 41.45 90.1 51.8 87.0 54.9 82.8 51.7 79.15 47.75 78.35 39.0" fill="#81425d" fill-rule="evenodd" stroke="none"/>
      <path d="M89.2 31.85 Q88.4 29.35 87.2 26.95 84.5 21.25 79.85 15.85 78.55 24.1 78.2 30.65 78.0 35.25 78.35 39.0 79.15 47.75 82.8 51.7 87.0 54.9 90.1 51.8 92.35 41.45 89.2 31.85 Z" fill="none" stroke="#265573" stroke-linecap="round" stroke-linejoin="round" stroke-width="1.0"/>
      <path d="M88.1 36.7 Q82.85 41.05 81.85 42.2 87.3 42.35 89.7 41.3" fill="none" stroke="#230930" stroke-linecap="round" stroke-linejoin="round" stroke-width="2.5"/>
      <path d="M28.3 16.55 Q43.95 16.05 51.6 22.75 53.55 24.6 54.9 26.9 L56.9 30.6 Q57.95 32.9 58.55 35.25 59.1 37.75 59.25 40.4 L59.3 41.05 Q59.3 43.85 58.6 46.45 L58.2 47.7 57.3 49.9 56.0 52.1 53.75 54.7 53.35 55.05 51.35 56.6 50.15 57.4 Q45.4 60.3 40.65 60.6 37.45 60.8 34.45 59.8 32.0 59.05 29.8 57.7 27.15 56.1 25.2 53.6 23.3 51.15 21.75 48.45 L19.95 45.15 Q18.75 42.65 17.8 39.8 21.35 39.35 24.6 35.85 29.35 30.75 29.35 21.8 29.35 19.4 28.3 16.55" fill="#81425d" fill-rule="evenodd" stroke="none"/>
      <path d="M17.8 39.8 Q16.05 34.5 14.85 28.15 L16.85 28.35 Q19.85 28.35 21.4 26.75 23.4 24.75 23.4 20.2 L22.95 16.85 28.3 16.55 Q29.35 19.4 29.35 21.8 29.35 30.75 24.6 35.85 21.35 39.35 17.8 39.8" fill="#5b2a42" fill-rule="evenodd" stroke="none"/>
      <path d="M14.85 28.15 Q14.1 23.45 13.6 18.15 L22.95 16.85 23.4 20.2 Q23.4 24.75 21.4 26.75 19.85 28.35 16.85 28.35 L14.85 28.15" fill="#40223e" fill-rule="evenodd" stroke="none"/>
      <path d="M28.3 16.55 Q43.95 16.05 51.6 22.75 53.55 24.6 54.9 26.9 L56.9 30.6 Q57.95 32.9 58.55 35.25 59.1 37.75 59.25 40.4 L59.3 41.05 Q59.3 43.85 58.6 46.45 L58.2 47.7 57.3 49.9 56.0 52.1 53.75 54.7 53.35 55.05 51.35 56.6 50.15 57.4 Q45.4 60.3 40.65 60.6 37.45 60.8 34.45 59.8 32.0 59.05 29.8 57.7 27.15 56.1 25.2 53.6 23.3 51.15 21.75 48.45 L19.95 45.15 Q18.75 42.65 17.8 39.8 16.05 34.5 14.85 28.15 14.1 23.45 13.6 18.15 L22.95 16.85 28.3 16.55 Z" fill="none" stroke="#411d33" stroke-linecap="round" stroke-linejoin="round" stroke-width="1.0"/>
      <path d="M28.6 47.3 Q35.2 47.5 48.6 44.85 L28.0 38.1" fill="none" stroke="#230930" stroke-linecap="round" stroke-linejoin="round" stroke-width="2.5"/>
      <path d="M69.5 16.1 L64.05 17.0 69.5 16.1 76.75 15.9 82.1 20.65 71.65 21.3 Q74.05 28.85 71.7 34.45 L64.8 32.2 Q66.55 28.1 65.75 22.95 61.3 24.75 58.75 28.1 L53.4 23.35 Q56.85 18.7 64.05 17.0 62.5 12.85 59.6 8.25 L66.4 10.5 69.5 16.1 M71.65 21.3 Q68.3 21.85 65.75 22.95 68.3 21.85 71.65 21.3" fill="#ffffff" fill-rule="evenodd" stroke="none"/>
      <path d="M64.05 17.0 L69.5 16.1 66.4 10.5 59.6 8.25 Q62.5 12.85 64.05 17.0 56.85 18.7 53.4 23.35 L58.75 28.1 Q61.3 24.75 65.75 22.95 68.3 21.85 71.65 21.3 L82.1 20.65 76.75 15.9 69.5 16.1 M71.65 21.3 Q74.05 28.85 71.7 34.45 L64.8 32.2 Q66.55 28.1 65.75 22.95" fill="none" stroke="#cccccc" stroke-linecap="round" stroke-linejoin="round" stroke-width="1.0"/>
    </g>
    <g id="shape7" transform="matrix(1.0, 0.0, 0.0, 1.0, 1.25, 1.0)">
      <path d="M11.3 0.25 L12.45 0.1 14.95 0.0 15.3 0.0 18.5 0.65 Q21.7 1.25 24.65 4.9 27.65 8.55 26.25 13.05 L24.45 14.6 Q22.05 15.25 18.3 17.25 12.8 20.25 8.3 20.25 L1.9 19.4 1.55 18.85 1.15 17.95 Q3.35 18.7 5.7 18.7 10.6 18.7 15.05 16.3 20.2 13.55 20.2 9.35 20.2 5.9 16.25 2.8 13.55 0.7 11.3 0.25" fill="#3ad3e5" fill-rule="evenodd" stroke="none"/>
      <path d="M1.9 19.4 L8.3 20.25 Q12.8 20.25 18.3 17.25 22.05 15.25 24.45 14.6 L20.5 17.7 Q17.55 19.85 15.3 20.85 11.85 22.3 9.15 22.6 4.25 23.05 1.9 19.4" fill="#adfccd" fill-rule="evenodd" stroke="none"/>
      <path d="M11.3 0.25 Q13.55 0.7 16.25 2.8 20.2 5.9 20.2 9.35 20.2 13.55 15.05 16.3 10.6 18.7 5.7 18.7 3.35 18.7 1.15 17.95 0.45 16.2 0.1 13.8 -1.05 1.7 11.3 0.25 M13.45 6.05 L13.25 5.75 13.4 6.15 Q11.2 2.8 8.9 2.8 6.65 2.8 4.75 4.8 2.75 6.8 2.75 9.0 2.75 11.2 4.55 13.4 6.3 15.65 8.55 15.6 10.8 15.5 12.25 14.3 14.25 12.7 14.25 9.35 L14.0 7.85 13.6 6.25 13.45 6.05" fill="#2c4c61" fill-rule="evenodd" stroke="none"/>
      <path d="M13.45 6.05 L13.6 6.25 14.0 7.85 14.25 9.35 Q14.25 12.7 12.25 14.3 10.8 15.5 8.55 15.6 6.3 15.65 4.55 13.4 2.75 11.2 2.75 9.0 2.75 6.8 4.75 4.8 6.65 2.8 8.9 2.8 11.2 2.8 13.4 6.15 L13.25 5.75 13.45 6.05 M3.55 7.25 Q3.55 7.9 4.0 8.75 4.65 9.85 5.65 9.85 6.5 9.85 7.0 9.1 7.55 8.4 7.55 7.15 L7.45 6.6 Q7.25 5.55 6.1 5.05 5.0 4.5 4.25 5.4 3.55 6.25 3.55 7.25" fill="#252944" fill-rule="evenodd" stroke="none"/>
      <path d="M3.55 7.25 Q3.55 6.25 4.25 5.4 5.0 4.5 6.1 5.05 7.25 5.55 7.45 6.6 L7.55 7.15 Q7.55 8.4 7.0 9.1 6.5 9.85 5.65 9.85 4.65 9.85 4.0 8.75 3.55 7.9 3.55 7.25" fill="#efbccf" fill-rule="evenodd" stroke="none"/>
      <path d="M1.15 17.95 L1.55 18.85 1.9 19.4 Q4.25 23.05 9.15 22.6 11.85 22.3 15.3 20.85 17.55 19.85 20.5 17.7 L24.45 14.6 26.25 13.05 26.95 12.4 M11.3 0.25 Q-1.05 1.7 0.1 13.8 0.45 16.2 1.15 17.95" fill="none" stroke="#230930" stroke-linecap="round" stroke-linejoin="round" stroke-width="2.5"/>
    </g>
  </defs>
</svg>
